<?xml version="1.0" encoding="utf-8"?>
<!-- Generator: Adobe Illustrator 25.2.1, SVG Export Plug-In . SVG Version: 6.00 Build 0)  -->
<svg version="1.1" id="Capa_1" xmlns="http://www.w3.org/2000/svg" xmlns:xlink="http://www.w3.org/1999/xlink" x="0px" y="0px"
	 viewBox="0 0 400.3 327" style="enable-background:new 0 0 400.3 327;" xml:space="preserve">
<style type="text/css">
	.st0{fill:#EBEBEB;}
	.st1{fill:#E6E6E6;}
	.st2{fill:#E0E0E0;}
	.st3{fill:#F0F0F0;}
	.st4{fill:#FAFAFA;}
	.st5{fill:#F5F5F5;}
	.st6{fill:none;stroke:#174D4D;stroke-miterlimit:10;}
	.st7{fill:#174D4D;}
	.st8{opacity:0.2;fill:#FFFFFF;enable-background:new    ;}
	.st9{opacity:0.5;fill:#FFFFFF;enable-background:new    ;}
	.st10{opacity:0.3;fill:#FFFFFF;enable-background:new    ;}
	.st11{opacity:0.6;}
	.st12{fill:#FFFFFF;}
	.st13{opacity:0.8;fill:#174D4D;enable-background:new    ;}
	.st14{opacity:0.8;fill:#FFFFFF;enable-background:new    ;}
	.st15{opacity:0.2;enable-background:new    ;}
	.st16{opacity:0.4;enable-background:new    ;}
	.st17{opacity:0.3;}
	.st18{fill:#263238;}
	.st19{opacity:0.4;fill:#FFFFFF;enable-background:new    ;}
	.st20{fill:#9F5B53;}
	.st21{opacity:0.6;fill:#FFFFFF;enable-background:new    ;}
</style>
<g id="freepik--background-complete--inject-2">
	<rect x="4.1" y="280.6" class="st0" width="387.3" height="0.3"/>
	<rect x="366.5" y="296.7" class="st0" width="33.1" height="0.3"/>
	<rect x="272.3" y="299.4" class="st0" width="8.7" height="0.3"/>
	<rect x="346.3" y="287.4" class="st0" width="19.2" height="0.3"/>
	<rect x="2.2" y="289.1" class="st0" width="43.2" height="0.3"/>
	<rect x="54.3" y="289.1" class="st0" width="6.3" height="0.3"/>
	<rect x="81.2" y="293.3" class="st0" width="93.7" height="0.3"/>
	<path class="st1" d="M119.2,273.7c-0.9,0-1.8,0-2.7-0.1l0.2-3.3c47.3,2.3,61-62.9,70.1-106c3.5-16.5,6.2-29.5,10-35.1
		c13.8-20.3,36.6-17.3,36.9-17.2l-0.5,3.2l0,0c-0.9-0.1-21.1-2.8-33.7,15.8c-3.4,5.1-6.3,18.4-9.5,34
		C180.9,208.5,167.2,273.7,119.2,273.7z"/>
	<path class="st1" d="M100.6,263l-0.2-3.3c27.6-1.9,43.2-32.4,58.3-61.9c8.4-16.6,16.4-32.2,26.4-42.8
		c28.2-30.1,41.8-25.7,42.4-25.5l-1.1,3.1l0.5-1.6l-0.5,1.6c-0.1,0-12.5-3.5-38.9,24.7c-9.6,10.3-17.5,25.7-25.9,42.1
		C146,229.7,130,261,100.6,263z"/>
	<path class="st1" d="M116.8,269.3l-1-3.1c9.5-3.1,15.4-14.3,22.1-27.3c8.2-15.9,17.6-33.9,36.6-43.9c34.9-18.3,77.5,5.2,79.2,6.2
		l-1.6,2.9c-0.4-0.2-42.9-23.7-76.1-6.2c-18.1,9.5-27.2,27-35.2,42.5C133.8,254,127.6,265.8,116.8,269.3z"/>
	<path class="st1" d="M111.6,279.9l-0.2-3.3c0.5,0,46.6-2.5,71.7-25.8c26.2-24.4,58-15.5,58.3-15.5l-0.9,3.1
		c-0.3-0.1-30.4-8.4-55.2,14.7C159.5,277.4,113.6,279.8,111.6,279.9z"/>
	<rect x="224.6" y="78.3" class="st2" width="130.3" height="201.5"/>
	<rect x="220.6" y="78.3" class="st0" width="106.4" height="201.5"/>
	<rect x="224" y="80.9" class="st2" width="99.5" height="198.9"/>
	<path class="st3" d="M241.1,264.1h31.3c0.9,0,1.6,0.7,1.6,1.6v6.9c0,0.9-0.7,1.6-1.6,1.6h-31.3c-0.9,0-1.6-0.7-1.6-1.6v-6.9
		C239.5,264.8,240.2,264.1,241.1,264.1z"/>
	<path class="st1" d="M241.1,264.1h31.3c0.9,0,1.6,0.7,1.6,1.6v6.9c0,0.9-0.7,1.6-1.6,1.6h-31.3c-0.9,0-1.6-0.7-1.6-1.6v-6.9
		C239.5,264.8,240.2,264.1,241.1,264.1z"/>
	<path class="st3" d="M229.3,264.1h31.3c0.9,0,1.6,0.7,1.6,1.6v6.9c0,0.9-0.7,1.6-1.6,1.6h-31.3c-0.9,0-1.6-0.7-1.6-1.6v-6.9
		C227.7,264.8,228.4,264.1,229.3,264.1z"/>
	<path class="st4" d="M258.9,269.2c0,1.2-1,2.1-2.1,2.1s-2.1-1-2.1-2.1c0-1.2,1-2.1,2.1-2.1C257.9,267.1,258.9,268,258.9,269.2
		C258.9,269.2,258.9,269.2,258.9,269.2z"/>
	<path class="st3" d="M257.8,269.2c-0.1,0.6-0.6,1-1.2,1c-0.5,0-0.9-0.5-1-1c-0.1-0.6,0.4-1.1,1-1.2c0.6-0.1,1.1,0.4,1.2,1
		C257.8,269.1,257.8,269.1,257.8,269.2z"/>
	<rect x="249.7" y="267.9" class="st4" width="2.4" height="2.4"/>
	<path class="st3" d="M241.1,253h31.3c0.9,0,1.6,0.7,1.6,1.6v6.9c0,0.9-0.7,1.6-1.6,1.6h-31.3c-0.9,0-1.6-0.7-1.6-1.6v-6.9
		C239.5,253.7,240.2,253,241.1,253z"/>
	<path class="st1" d="M241.1,253h31.3c0.9,0,1.6,0.7,1.6,1.6v6.9c0,0.9-0.7,1.6-1.6,1.6h-31.3c-0.9,0-1.6-0.7-1.6-1.6v-6.9
		C239.5,253.7,240.2,253,241.1,253z"/>
	<path class="st3" d="M229.3,253h31.3c0.9,0,1.6,0.7,1.6,1.6v6.9c0,0.9-0.7,1.6-1.6,1.6h-31.3c-0.9,0-1.6-0.7-1.6-1.6v-6.9
		C227.7,253.7,228.4,253,229.3,253z"/>
	<path class="st4" d="M258.9,258.1c0,1.2-1,2.1-2.1,2.1s-2.1-1-2.1-2.1s1-2.1,2.1-2.1S258.9,256.9,258.9,258.1L258.9,258.1z"/>
	<path class="st3" d="M257.8,258.1c0,0.6-0.5,1.1-1.1,1.1c-0.6,0-1.1-0.5-1.1-1.1c0-0.6,0.5-1.1,1.1-1.1c0,0,0,0,0,0
		C257.3,257,257.8,257.5,257.8,258.1z"/>
	<rect x="249.7" y="256.9" class="st4" width="2.4" height="2.4"/>
	<path class="st3" d="M241.1,241.9h31.3c0.9,0,1.6,0.7,1.6,1.6v6.9c0,0.9-0.7,1.6-1.6,1.6h-31.3c-0.9,0-1.6-0.7-1.6-1.6v-6.9
		C239.5,242.7,240.2,241.9,241.1,241.9z"/>
	<path class="st1" d="M241.1,241.9h31.3c0.9,0,1.6,0.7,1.6,1.6v6.9c0,0.9-0.7,1.6-1.6,1.6h-31.3c-0.9,0-1.6-0.7-1.6-1.6v-6.9
		C239.5,242.7,240.2,241.9,241.1,241.9z"/>
	<path class="st3" d="M229.3,241.9h31.3c0.9,0,1.6,0.7,1.6,1.6v6.9c0,0.9-0.7,1.6-1.6,1.6h-31.3c-0.9,0-1.6-0.7-1.6-1.6v-6.9
		C227.7,242.7,228.4,241.9,229.3,241.9z"/>
	<path class="st4" d="M258.9,247c0,1.2-1,2.1-2.1,2.1s-2.1-1-2.1-2.1s1-2.1,2.1-2.1S258.9,245.8,258.9,247L258.9,247z"/>
	<path class="st3" d="M257.8,247c0,0.6-0.5,1.1-1.1,1.1c-0.6,0-1.1-0.5-1.1-1.1c0-0.6,0.5-1.1,1.1-1.1c0,0,0,0,0,0
		C257.3,245.9,257.8,246.4,257.8,247z"/>
	<rect x="249.7" y="245.8" class="st4" width="2.4" height="2.4"/>
	<path class="st3" d="M241.1,230.8h31.3c0.9,0,1.6,0.7,1.6,1.6v6.9c0,0.9-0.7,1.6-1.6,1.6h-31.3c-0.9,0-1.6-0.7-1.6-1.6v-6.9
		C239.5,231.6,240.2,230.8,241.1,230.8z"/>
	<path class="st1" d="M241.1,230.8h31.3c0.9,0,1.6,0.7,1.6,1.6v6.9c0,0.9-0.7,1.6-1.6,1.6h-31.3c-0.9,0-1.6-0.7-1.6-1.6v-6.9
		C239.5,231.6,240.2,230.8,241.1,230.8z"/>
	<path class="st3" d="M229.3,230.8h31.3c0.9,0,1.6,0.7,1.6,1.6v6.9c0,0.9-0.7,1.6-1.6,1.6h-31.3c-0.9,0-1.6-0.7-1.6-1.6v-6.9
		C227.7,231.6,228.4,230.8,229.3,230.8z"/>
	<path class="st4" d="M258.9,235.9c0,1.2-1,2.1-2.1,2.1s-2.1-1-2.1-2.1c0-1.2,1-2.1,2.1-2.1C257.9,233.8,258.9,234.7,258.9,235.9
		C258.9,235.9,258.9,235.9,258.9,235.9z"/>
	<path class="st3" d="M257.8,235.9c-0.1,0.6-0.6,1-1.2,1c-0.5,0-0.9-0.5-1-1c-0.1-0.6,0.4-1.1,1-1.2c0.6-0.1,1.1,0.4,1.2,1
		C257.8,235.8,257.8,235.8,257.8,235.9z"/>
	<rect x="249.7" y="234.7" class="st4" width="2.4" height="2.4"/>
	<path class="st3" d="M241.2,219.8h31.3c0.9,0,1.6,0.7,1.6,1.6v6.9c0,0.9-0.7,1.6-1.6,1.6h-31.3c-0.9,0-1.6-0.7-1.6-1.6v-6.9
		C239.5,220.5,240.3,219.8,241.2,219.8z"/>
	<path class="st1" d="M241.2,219.8h31.3c0.9,0,1.6,0.7,1.6,1.6v6.9c0,0.9-0.7,1.6-1.6,1.6h-31.3c-0.9,0-1.6-0.7-1.6-1.6v-6.9
		C239.5,220.5,240.3,219.8,241.2,219.8z"/>
	<path class="st3" d="M229.4,219.8h31.3c0.9,0,1.6,0.7,1.6,1.6v6.9c0,0.9-0.7,1.6-1.6,1.6h-31.3c-0.9,0-1.6-0.7-1.6-1.6v-6.9
		C227.8,220.5,228.5,219.8,229.4,219.8z"/>
	<circle class="st4" cx="256.8" cy="224.8" r="2.1"/>
	<path class="st3" d="M257.9,224.8c0,0.6-0.5,1.1-1.1,1.1c-0.6,0-1.1-0.5-1.1-1.1c0-0.6,0.5-1.1,1.1-1.1c0,0,0,0,0,0
		C257.4,223.7,257.9,224.2,257.9,224.8z"/>
	<rect x="249.8" y="223.6" class="st4" width="2.4" height="2.4"/>
	<path class="st3" d="M241.3,208.7h31.3c0.9,0,1.6,0.7,1.6,1.6v6.9c0,0.9-0.7,1.6-1.6,1.6h-31.3c-0.9,0-1.6-0.7-1.6-1.6v-6.9
		C239.6,209.4,240.4,208.7,241.3,208.7z"/>
	<path class="st1" d="M241.3,208.7h31.3c0.9,0,1.6,0.7,1.6,1.6v6.9c0,0.9-0.7,1.6-1.6,1.6h-31.3c-0.9,0-1.6-0.7-1.6-1.6v-6.9
		C239.6,209.4,240.4,208.7,241.3,208.7z"/>
	<path class="st3" d="M229.5,208.7h31.3c0.9,0,1.6,0.7,1.6,1.6v6.9c0,0.9-0.7,1.6-1.6,1.6h-31.3c-0.9,0-1.6-0.7-1.6-1.6v-6.9
		C227.8,209.4,228.6,208.7,229.5,208.7z"/>
	<path class="st4" d="M259,213.7c0,1.2-1,2.1-2.1,2.1s-2.1-1-2.1-2.1s1-2.1,2.1-2.1S259,212.6,259,213.7L259,213.7z"/>
	<path class="st3" d="M257.9,213.7c0,0.6-0.5,1.1-1.1,1.1c-0.6,0-1.1-0.5-1.1-1.1c0-0.6,0.5-1.1,1.1-1.1c0,0,0,0,0,0
		C257.5,212.7,257.9,213.2,257.9,213.7z"/>
	<rect x="249.9" y="212.5" class="st4" width="2.4" height="2.4"/>
	<path class="st3" d="M241.3,197.6h31.3c0.9,0,1.6,0.7,1.6,1.6v6.9c0,0.9-0.7,1.6-1.6,1.6h-31.3c-0.9,0-1.6-0.7-1.6-1.6v-6.9
		C239.7,198.3,240.4,197.6,241.3,197.6z"/>
	<path class="st1" d="M241.3,197.6h31.3c0.9,0,1.6,0.7,1.6,1.6v6.9c0,0.9-0.7,1.6-1.6,1.6h-31.3c-0.9,0-1.6-0.7-1.6-1.6v-6.9
		C239.7,198.3,240.4,197.6,241.3,197.6z"/>
	<path class="st3" d="M229.6,197.6h31.3c0.9,0,1.6,0.7,1.6,1.6v6.9c0,0.9-0.7,1.6-1.6,1.6h-31.3c-0.9,0-1.6-0.7-1.6-1.6v-6.9
		C227.9,198.3,228.6,197.6,229.6,197.6z"/>
	<path class="st4" d="M259.1,202.7c0,1.2-1,2.1-2.1,2.1c-1.2,0-2.1-1-2.1-2.1c0-1.2,1-2.1,2.1-2.1c0,0,0,0,0,0
		C258.1,200.5,259.1,201.5,259.1,202.7C259.1,202.7,259.1,202.7,259.1,202.7z"/>
	<path class="st3" d="M258,202.7c-0.1,0.6-0.6,1-1.2,1c-0.5,0-0.9-0.5-1-1c-0.1-0.6,0.4-1.1,1-1.2c0.6-0.1,1.1,0.4,1.2,1
		C258,202.5,258,202.6,258,202.7z"/>
	<rect x="249.9" y="201.4" class="st4" width="2.4" height="2.4"/>
	<path class="st3" d="M241.4,186.5h31.3c0.9,0,1.6,0.7,1.6,1.6v6.9c0,0.9-0.7,1.6-1.6,1.6h-31.3c-0.9,0-1.6-0.7-1.6-1.6v-6.9
		C239.8,187.2,240.5,186.5,241.4,186.5z"/>
	<path class="st1" d="M241.4,186.5h31.3c0.9,0,1.6,0.7,1.6,1.6v6.9c0,0.9-0.7,1.6-1.6,1.6h-31.3c-0.9,0-1.6-0.7-1.6-1.6v-6.9
		C239.8,187.2,240.5,186.5,241.4,186.5z"/>
	<path class="st3" d="M229.6,186.5h31.3c0.9,0,1.6,0.7,1.6,1.6v6.9c0,0.9-0.7,1.6-1.6,1.6h-31.3c-0.9,0-1.6-0.7-1.6-1.6v-6.9
		C228,187.2,228.7,186.5,229.6,186.5z"/>
	<path class="st4" d="M259.1,191.6c0,1.2-0.9,2.1-2.1,2.1c-1.2,0-2.1-0.9-2.1-2.1c0-1.2,0.9-2.1,2.1-2.1c0,0,0,0,0,0
		C258.2,189.4,259.1,190.4,259.1,191.6L259.1,191.6z"/>
	<path class="st3" d="M258.1,191.6c0,0.6-0.5,1.1-1.1,1.1c-0.6,0-1.1-0.5-1.1-1.1c0-0.6,0.5-1.1,1.1-1.1c0,0,0,0,0,0
		C257.6,190.5,258.1,191,258.1,191.6z"/>
	<rect x="250" y="190.4" class="st4" width="2.4" height="2.4"/>
	<path class="st3" d="M241.5,175.4h31.3c0.9,0,1.6,0.7,1.6,1.6v6.9c0,0.9-0.7,1.6-1.6,1.6h-31.3c-0.9,0-1.6-0.7-1.6-1.6v-6.9
		C239.8,176.2,240.6,175.4,241.5,175.4z"/>
	<path class="st1" d="M241.5,175.4h31.3c0.9,0,1.6,0.7,1.6,1.6v6.9c0,0.9-0.7,1.6-1.6,1.6h-31.3c-0.9,0-1.6-0.7-1.6-1.6v-6.9
		C239.8,176.2,240.6,175.4,241.5,175.4z"/>
	<path class="st3" d="M229.7,175.4H261c0.9,0,1.6,0.7,1.6,1.6v6.9c0,0.9-0.7,1.6-1.6,1.6h-31.3c-0.9,0-1.6-0.7-1.6-1.6v-6.9
		C228,176.2,228.8,175.4,229.7,175.4z"/>
	<path class="st4" d="M259.2,180.5c0,1.2-0.9,2.1-2.1,2.1c-1.2,0-2.1-0.9-2.1-2.1c0-1.2,0.9-2.1,2.1-2.1c0,0,0,0,0,0
		C258.3,178.4,259.2,179.3,259.2,180.5L259.2,180.5z"/>
	<circle class="st3" cx="257.1" cy="180.5" r="1.1"/>
	<rect x="250.1" y="179.3" class="st4" width="2.4" height="2.4"/>
	<path class="st3" d="M241.5,164.3h31.3c0.9,0,1.6,0.7,1.6,1.6v6.9c0,0.9-0.7,1.6-1.6,1.6h-31.3c-0.9,0-1.6-0.7-1.6-1.6V166
		C239.9,165.1,240.6,164.3,241.5,164.3z"/>
	<path class="st1" d="M241.5,164.3h31.3c0.9,0,1.6,0.7,1.6,1.6v6.9c0,0.9-0.7,1.6-1.6,1.6h-31.3c-0.9,0-1.6-0.7-1.6-1.6V166
		C239.9,165.1,240.6,164.3,241.5,164.3z"/>
	<path class="st3" d="M229.8,164.3H261c0.9,0,1.6,0.7,1.6,1.6v6.9c0,0.9-0.7,1.6-1.6,1.6h-31.3c-0.9,0-1.6-0.7-1.6-1.6V166
		C228.1,165.1,228.9,164.3,229.8,164.3z"/>
	<path class="st4" d="M259.3,169.4c0,1.2-0.9,2.1-2.1,2.1c-1.2,0-2.1-0.9-2.1-2.1c0-1.2,0.9-2.1,2.1-2.1c0,0,0,0,0,0
		C258.3,167.3,259.3,168.2,259.3,169.4L259.3,169.4z"/>
	<circle class="st3" cx="257.1" cy="169.4" r="1.1"/>
	<rect x="250.1" y="168.2" class="st4" width="2.4" height="2.4"/>
	<path class="st3" d="M241.6,153.3h31.3c0.9,0,1.6,0.7,1.6,1.6v6.9c0,0.9-0.7,1.6-1.6,1.6h-31.3c-0.9,0-1.6-0.7-1.6-1.6v-6.9
		C240,154,240.7,153.3,241.6,153.3z"/>
	<path class="st1" d="M241.6,153.3h31.3c0.9,0,1.6,0.7,1.6,1.6v6.9c0,0.9-0.7,1.6-1.6,1.6h-31.3c-0.9,0-1.6-0.7-1.6-1.6v-6.9
		C240,154,240.7,153.3,241.6,153.3z"/>
	<path class="st3" d="M229.8,153.3h31.3c0.9,0,1.6,0.7,1.6,1.6v6.9c0,0.9-0.7,1.6-1.6,1.6h-31.3c-0.9,0-1.6-0.7-1.6-1.6v-6.9
		C228.2,154,228.9,153.3,229.8,153.3z"/>
	<path class="st4" d="M259.3,158.3c0,1.2-1,2.1-2.1,2.1c-1.2,0-2.1-1-2.1-2.1c0-1.2,1-2.1,2.1-2.1c0,0,0,0,0,0
		C258.4,156.2,259.3,157.2,259.3,158.3C259.3,158.3,259.3,158.3,259.3,158.3z"/>
	<path class="st3" d="M258.3,158.3c0,0.6-0.5,1.1-1.1,1.1c-0.6,0-1.1-0.5-1.1-1.1s0.5-1.1,1.1-1.1c0,0,0,0,0,0
		C257.8,157.2,258.3,157.7,258.3,158.3C258.3,158.3,258.3,158.3,258.3,158.3z"/>
	<rect x="250.2" y="157.1" class="st4" width="2.4" height="2.4"/>
	<path class="st3" d="M241.7,142.2H273c0.9,0,1.6,0.7,1.6,1.6v6.9c0,0.9-0.7,1.6-1.6,1.6h-31.3c-0.9,0-1.6-0.7-1.6-1.6v-6.9
		C240,142.9,240.8,142.2,241.7,142.2z"/>
	<path class="st1" d="M241.7,142.2H273c0.9,0,1.6,0.7,1.6,1.6v6.9c0,0.9-0.7,1.6-1.6,1.6h-31.3c-0.9,0-1.6-0.7-1.6-1.6v-6.9
		C240,142.9,240.8,142.2,241.7,142.2z"/>
	<path class="st3" d="M229.9,142.2h31.3c0.9,0,1.6,0.7,1.6,1.6v6.9c0,0.9-0.7,1.6-1.6,1.6h-31.3c-0.9,0-1.6-0.7-1.6-1.6v-6.9
		C228.3,142.9,229,142.2,229.9,142.2z"/>
	<path class="st4" d="M259.4,147.2c0,1.2-0.9,2.1-2.1,2.1s-2.1-0.9-2.1-2.1c0-1.2,0.9-2.1,2.1-2.1c0,0,0,0,0,0
		C258.5,145.1,259.4,146.1,259.4,147.2z"/>
	<path class="st3" d="M258.4,147.2c0,0.6-0.5,1.1-1.1,1.1c-0.6,0-1.1-0.5-1.1-1.1c0-0.6,0.5-1.1,1.1-1.1c0,0,0,0,0,0
		C257.9,146.2,258.4,146.7,258.4,147.2z"/>
	<rect x="250.3" y="146" class="st4" width="2.4" height="2.4"/>
	<path class="st3" d="M241.8,131.1H273c0.9,0,1.6,0.7,1.6,1.6v6.9c0,0.9-0.7,1.6-1.6,1.6h-31.3c-0.9,0-1.6-0.7-1.6-1.6v-6.9
		C240.1,131.8,240.8,131.1,241.8,131.1z"/>
	<path class="st1" d="M241.8,131.1H273c0.9,0,1.6,0.7,1.6,1.6v6.9c0,0.9-0.7,1.6-1.6,1.6h-31.3c-0.9,0-1.6-0.7-1.6-1.6v-6.9
		C240.1,131.8,240.8,131.1,241.8,131.1z"/>
	<path class="st3" d="M230,131.1h31.3c0.9,0,1.6,0.7,1.6,1.6v6.9c0,0.9-0.7,1.6-1.6,1.6H230c-0.9,0-1.6-0.7-1.6-1.6v-6.9
		C228.3,131.8,229.1,131.1,230,131.1z"/>
	<path class="st4" d="M259.5,136.2c0,1.2-0.9,2.1-2.1,2.1s-2.1-0.9-2.1-2.1c0-1.2,0.9-2.1,2.1-2.1c0,0,0,0,0,0
		C258.5,134.1,259.5,135,259.5,136.2C259.5,136.2,259.5,136.2,259.5,136.2z"/>
	<path class="st3" d="M258.4,136.2c-0.1,0.6-0.6,1-1.2,1c-0.5,0-0.9-0.5-1-1c-0.1-0.6,0.4-1.1,1-1.2c0.6-0.1,1.1,0.4,1.2,1
		C258.4,136.1,258.4,136.1,258.4,136.2z"/>
	<rect x="250.4" y="135" class="st4" width="2.4" height="2.4"/>
	<path class="st3" d="M241.8,120h31.3c0.9,0,1.6,0.7,1.6,1.6v6.9c0,0.9-0.7,1.6-1.6,1.6h-31.3c-0.9,0-1.6-0.7-1.6-1.6v-6.9
		C240.2,120.7,240.9,120,241.8,120z"/>
	<path class="st1" d="M241.8,120h31.3c0.9,0,1.6,0.7,1.6,1.6v6.9c0,0.9-0.7,1.6-1.6,1.6h-31.3c-0.9,0-1.6-0.7-1.6-1.6v-6.9
		C240.2,120.7,240.9,120,241.8,120z"/>
	<path class="st3" d="M230,120h31.3c0.9,0,1.6,0.7,1.6,1.6v6.9c0,0.9-0.7,1.6-1.6,1.6H230c-0.9,0-1.6-0.7-1.6-1.6v-6.9
		C228.4,120.7,229.1,120,230,120z"/>
	<circle class="st4" cx="257.4" cy="125.1" r="2.1"/>
	<path class="st3" d="M258.5,125.1c-0.1,0.6-0.6,1-1.2,1c-0.5,0-0.9-0.5-1-1c-0.1-0.6,0.4-1.1,1-1.2c0.6-0.1,1.1,0.4,1.2,1
		C258.5,124.9,258.5,125,258.5,125.1z"/>
	<rect x="250.4" y="123.9" class="st4" width="2.4" height="2.4"/>
	<path class="st3" d="M241.9,108.9h31.3c0.9,0,1.6,0.7,1.6,1.6v6.9c0,0.9-0.7,1.6-1.6,1.6h-31.3c-0.9,0-1.6-0.7-1.6-1.6v-6.9
		C240.2,109.7,241,108.9,241.9,108.9z"/>
	<path class="st1" d="M241.9,108.9h31.3c0.9,0,1.6,0.7,1.6,1.6v6.9c0,0.9-0.7,1.6-1.6,1.6h-31.3c-0.9,0-1.6-0.7-1.6-1.6v-6.9
		C240.2,109.7,241,108.9,241.9,108.9z"/>
	<path class="st3" d="M230.1,108.9h31.3c0.9,0,1.6,0.7,1.6,1.6v6.9c0,0.9-0.7,1.6-1.6,1.6h-31.3c-0.9,0-1.6-0.7-1.6-1.6v-6.9
		C228.5,109.7,229.2,108.9,230.1,108.9z"/>
	<circle class="st4" cx="257.5" cy="114" r="2.1"/>
	<path class="st3" d="M258.6,114c0,0.6-0.5,1.1-1.1,1.1c-0.6,0-1.1-0.5-1.1-1.1c0-0.6,0.5-1.1,1.1-1.1c0,0,0,0,0,0
		C258.1,112.9,258.6,113.4,258.6,114z"/>
	<rect x="250.5" y="112.8" class="st4" width="2.4" height="2.4"/>
	<path class="st3" d="M242,97.8h31.3c0.9,0,1.6,0.7,1.6,1.6v6.9c0,0.9-0.7,1.6-1.6,1.6H242c-0.9,0-1.6-0.7-1.6-1.6v-6.9
		C240.3,98.6,241.1,97.8,242,97.8z"/>
	<path class="st1" d="M242,97.8h31.3c0.9,0,1.6,0.7,1.6,1.6v6.9c0,0.9-0.7,1.6-1.6,1.6H242c-0.9,0-1.6-0.7-1.6-1.6v-6.9
		C240.3,98.6,241.1,97.8,242,97.8z"/>
	<path class="st3" d="M230.2,97.8h31.3c0.9,0,1.6,0.7,1.6,1.6v6.9c0,0.9-0.7,1.6-1.6,1.6h-31.3c-0.9,0-1.6-0.7-1.6-1.6v-6.9
		C228.5,98.6,229.3,97.8,230.2,97.8z"/>
	<path class="st4" d="M259.7,102.9c0,1.2-0.9,2.1-2.1,2.1s-2.1-0.9-2.1-2.1c0-1.2,0.9-2.1,2.1-2.1c0,0,0,0,0,0
		C258.7,100.8,259.7,101.7,259.7,102.9C259.7,102.9,259.7,102.9,259.7,102.9z"/>
	<path class="st3" d="M258.6,102.9c-0.1,0.6-0.6,1-1.2,1c-0.5,0-0.9-0.5-1-1c-0.1-0.6,0.4-1.1,1-1.2c0.6-0.1,1.1,0.4,1.2,1
		C258.7,102.8,258.7,102.8,258.6,102.9z"/>
	<rect x="250.6" y="101.7" class="st4" width="2.4" height="2.4"/>
	<path class="st3" d="M242,86.8h31.3c0.9,0,1.6,0.7,1.6,1.6v6.9c0,0.9-0.7,1.6-1.6,1.6H242c-0.9,0-1.6-0.7-1.6-1.6v-6.9
		C240.4,87.5,241.1,86.8,242,86.8z"/>
	<path class="st1" d="M242,86.8h31.3c0.9,0,1.6,0.7,1.6,1.6v6.9c0,0.9-0.7,1.6-1.6,1.6H242c-0.9,0-1.6-0.7-1.6-1.6v-6.9
		C240.4,87.5,241.1,86.8,242,86.8z"/>
	<path class="st3" d="M230.3,86.8h31.3c0.9,0,1.6,0.7,1.6,1.6v6.9c0,0.9-0.7,1.6-1.6,1.6h-31.3c-0.9,0-1.6-0.7-1.6-1.6v-6.9
		C228.6,87.5,229.3,86.8,230.3,86.8z"/>
	<path class="st4" d="M259.8,91.8c0,1.2-1,2.1-2.1,2.1c-1.2,0-2.1-1-2.1-2.1s1-2.1,2.1-2.1c0,0,0,0,0,0
		C258.8,89.7,259.8,90.7,259.8,91.8z"/>
	<path class="st3" d="M258.8,91.8c-0.1,0.6-0.6,1-1.2,1c-0.5,0-0.9-0.5-1-1c-0.1-0.6,0.4-1.1,1-1.2c0.6-0.1,1.1,0.4,1.2,1
		C258.8,91.7,258.8,91.8,258.8,91.8z"/>
	<rect x="250.6" y="90.6" class="st4" width="2.4" height="2.4"/>
	<path class="st3" d="M284,264.1h31.3c0.9,0,1.6,0.7,1.6,1.6v6.9c0,0.9-0.7,1.6-1.6,1.6H284c-0.9,0-1.6-0.7-1.6-1.6v-6.9
		C282.3,264.8,283.1,264.1,284,264.1z"/>
	<path class="st1" d="M284,264.1h31.3c0.9,0,1.6,0.7,1.6,1.6v6.9c0,0.9-0.7,1.6-1.6,1.6H284c-0.9,0-1.6-0.7-1.6-1.6v-6.9
		C282.3,264.8,283.1,264.1,284,264.1z"/>
	<path class="st3" d="M272.2,264.1h31.3c0.9,0,1.6,0.7,1.6,1.6v6.9c0,0.9-0.7,1.6-1.6,1.6h-31.3c-0.9,0-1.6-0.7-1.6-1.6v-6.9
		C270.5,264.8,271.3,264.1,272.2,264.1z"/>
	<path class="st4" d="M301.8,269.2c0,1.2-1,2.1-2.1,2.1s-2.1-1-2.1-2.1c0-1.2,1-2.1,2.1-2.1C300.8,267.1,301.8,268,301.8,269.2
		C301.8,269.2,301.8,269.2,301.8,269.2z"/>
	<circle class="st3" cx="299.6" cy="269.2" r="1.1"/>
	<rect x="292.6" y="267.9" class="st4" width="2.4" height="2.4"/>
	<path class="st3" d="M284,253h31.3c0.9,0,1.6,0.7,1.6,1.6v6.9c0,0.9-0.7,1.6-1.6,1.6H284c-0.9,0-1.6-0.7-1.6-1.6v-6.9
		C282.3,253.7,283.1,253,284,253z"/>
	<path class="st1" d="M284,253h31.3c0.9,0,1.6,0.7,1.6,1.6v6.9c0,0.9-0.7,1.6-1.6,1.6H284c-0.9,0-1.6-0.7-1.6-1.6v-6.9
		C282.3,253.7,283.1,253,284,253z"/>
	<path class="st3" d="M272.2,253h31.3c0.9,0,1.6,0.7,1.6,1.6v6.9c0,0.9-0.7,1.6-1.6,1.6h-31.3c-0.9,0-1.6-0.7-1.6-1.6v-6.9
		C270.5,253.7,271.3,253,272.2,253z"/>
	<path class="st4" d="M301.8,258.1c0,1.2-1,2.1-2.1,2.1s-2.1-1-2.1-2.1s1-2.1,2.1-2.1S301.8,256.9,301.8,258.1L301.8,258.1z"/>
	<path class="st3" d="M300.7,258.1c0,0.6-0.5,1.1-1.1,1.1c-0.6,0-1.1-0.5-1.1-1.1c0-0.6,0.5-1.1,1.1-1.1c0,0,0,0,0,0
		C300.2,257,300.7,257.5,300.7,258.1z"/>
	<rect x="292.6" y="256.9" class="st4" width="2.4" height="2.4"/>
	<path class="st3" d="M284,241.9h31.3c0.9,0,1.6,0.7,1.6,1.6v6.9c0,0.9-0.7,1.6-1.6,1.6H284c-0.9,0-1.6-0.7-1.6-1.6v-6.9
		C282.3,242.7,283.1,241.9,284,241.9z"/>
	<path class="st1" d="M284,241.9h31.3c0.9,0,1.6,0.7,1.6,1.6v6.9c0,0.9-0.7,1.6-1.6,1.6H284c-0.9,0-1.6-0.7-1.6-1.6v-6.9
		C282.3,242.7,283.1,241.9,284,241.9z"/>
	<path class="st3" d="M272.2,241.9h31.3c0.9,0,1.6,0.7,1.6,1.6v6.9c0,0.9-0.7,1.6-1.6,1.6h-31.3c-0.9,0-1.6-0.7-1.6-1.6v-6.9
		C270.5,242.7,271.3,241.9,272.2,241.9z"/>
	<path class="st4" d="M301.8,247c0,1.2-1,2.1-2.1,2.1s-2.1-1-2.1-2.1s1-2.1,2.1-2.1S301.8,245.8,301.8,247L301.8,247z"/>
	<path class="st3" d="M300.7,247c0,0.6-0.5,1.1-1.1,1.1c-0.6,0-1.1-0.5-1.1-1.1c0-0.6,0.5-1.1,1.1-1.1c0,0,0,0,0,0
		C300.2,245.9,300.7,246.4,300.7,247z"/>
	<rect x="292.6" y="245.8" class="st4" width="2.4" height="2.4"/>
	<path class="st3" d="M284,230.8h31.3c0.9,0,1.6,0.7,1.6,1.6v6.9c0,0.9-0.7,1.6-1.6,1.6H284c-0.9,0-1.6-0.7-1.6-1.6v-6.9
		C282.3,231.6,283.1,230.8,284,230.8z"/>
	<path class="st1" d="M284,230.8h31.3c0.9,0,1.6,0.7,1.6,1.6v6.9c0,0.9-0.7,1.6-1.6,1.6H284c-0.9,0-1.6-0.7-1.6-1.6v-6.9
		C282.3,231.6,283.1,230.8,284,230.8z"/>
	<path class="st3" d="M272.2,230.8h31.3c0.9,0,1.6,0.7,1.6,1.6v6.9c0,0.9-0.7,1.6-1.6,1.6h-31.3c-0.9,0-1.6-0.7-1.6-1.6v-6.9
		C270.5,231.6,271.3,230.8,272.2,230.8z"/>
	<path class="st4" d="M301.8,235.9c0,1.2-1,2.1-2.1,2.1s-2.1-1-2.1-2.1c0-1.2,1-2.1,2.1-2.1C300.8,233.8,301.8,234.7,301.8,235.9
		C301.8,235.9,301.8,235.9,301.8,235.9z"/>
	<path class="st3" d="M300.7,235.9c-0.1,0.6-0.6,1-1.2,1c-0.5,0-0.9-0.5-1-1c-0.1-0.6,0.4-1.1,1-1.2c0.6-0.1,1.1,0.4,1.2,1
		C300.7,235.8,300.7,235.8,300.7,235.9z"/>
	<rect x="292.6" y="234.7" class="st4" width="2.4" height="2.4"/>
	<path class="st3" d="M284,219.8h31.3c0.9,0,1.6,0.7,1.6,1.6v6.9c0,0.9-0.7,1.6-1.6,1.6H284c-0.9,0-1.6-0.7-1.6-1.6v-6.9
		C282.4,220.5,283.1,219.8,284,219.8z"/>
	<path class="st1" d="M284,219.8h31.3c0.9,0,1.6,0.7,1.6,1.6v6.9c0,0.9-0.7,1.6-1.6,1.6H284c-0.9,0-1.6-0.7-1.6-1.6v-6.9
		C282.4,220.5,283.1,219.8,284,219.8z"/>
	<path class="st3" d="M272.3,219.8h31.3c0.9,0,1.6,0.7,1.6,1.6v6.9c0,0.9-0.7,1.6-1.6,1.6h-31.3c-0.9,0-1.6-0.7-1.6-1.6v-6.9
		C270.6,220.5,271.4,219.8,272.3,219.8z"/>
	<path class="st4" d="M301.8,224.8c0,1.2-1,2.1-2.1,2.1s-2.1-1-2.1-2.1s1-2.1,2.1-2.1S301.8,223.7,301.8,224.8L301.8,224.8z"/>
	<circle class="st3" cx="299.6" cy="224.8" r="1.1"/>
	<rect x="292.6" y="223.6" class="st4" width="2.4" height="2.4"/>
	<path class="st3" d="M284.1,208.7h31.3c0.9,0,1.6,0.7,1.6,1.6v6.9c0,0.9-0.7,1.6-1.6,1.6h-31.3c-0.9,0-1.6-0.7-1.6-1.6v-6.9
		C282.5,209.4,283.2,208.7,284.1,208.7z"/>
	<path class="st1" d="M284.1,208.7h31.3c0.9,0,1.6,0.7,1.6,1.6v6.9c0,0.9-0.7,1.6-1.6,1.6h-31.3c-0.9,0-1.6-0.7-1.6-1.6v-6.9
		C282.5,209.4,283.2,208.7,284.1,208.7z"/>
	<path class="st3" d="M272.3,208.7h31.3c0.9,0,1.6,0.7,1.6,1.6v6.9c0,0.9-0.7,1.6-1.6,1.6h-31.3c-0.9,0-1.6-0.7-1.6-1.6v-6.9
		C270.7,209.4,271.4,208.7,272.3,208.7z"/>
	<path class="st4" d="M301.8,213.7c0,1.2-1,2.1-2.1,2.1s-2.1-1-2.1-2.1s1-2.1,2.1-2.1S301.8,212.6,301.8,213.7L301.8,213.7z"/>
	<path class="st3" d="M300.8,213.7c0,0.6-0.5,1.1-1.1,1.1c-0.6,0-1.1-0.5-1.1-1.1c0-0.6,0.5-1.1,1.1-1.1c0,0,0,0,0,0
		C300.3,212.7,300.8,213.2,300.8,213.7z"/>
	<rect x="292.7" y="212.5" class="st4" width="2.4" height="2.4"/>
	<path class="st3" d="M284.2,197.6h31.3c0.9,0,1.6,0.7,1.6,1.6v6.9c0,0.9-0.7,1.6-1.6,1.6h-31.3c-0.9,0-1.6-0.7-1.6-1.6v-6.9
		C282.5,198.3,283.3,197.6,284.2,197.6z"/>
	<path class="st1" d="M284.2,197.6h31.3c0.9,0,1.6,0.7,1.6,1.6v6.9c0,0.9-0.7,1.6-1.6,1.6h-31.3c-0.9,0-1.6-0.7-1.6-1.6v-6.9
		C282.5,198.3,283.3,197.6,284.2,197.6z"/>
	<path class="st3" d="M272.4,197.6h31.3c0.9,0,1.6,0.7,1.6,1.6v6.9c0,0.9-0.7,1.6-1.6,1.6h-31.3c-0.9,0-1.6-0.7-1.6-1.6v-6.9
		C270.8,198.3,271.5,197.6,272.4,197.6z"/>
	<path class="st4" d="M301.9,202.7c0,1.2-1,2.1-2.1,2.1s-2.1-1-2.1-2.1c0-1.2,1-2.1,2.1-2.1C301,200.5,301.9,201.5,301.9,202.7
		C301.9,202.7,301.9,202.7,301.9,202.7z"/>
	<path class="st3" d="M300.9,202.7c-0.1,0.6-0.6,1-1.2,1c-0.5,0-0.9-0.5-1-1c-0.1-0.6,0.4-1.1,1-1.2c0.6-0.1,1.1,0.4,1.2,1
		C300.9,202.5,300.9,202.6,300.9,202.7z"/>
	<rect x="292.8" y="201.4" class="st4" width="2.4" height="2.4"/>
	<path class="st3" d="M284.3,186.5h31.3c0.9,0,1.6,0.7,1.6,1.6v6.9c0,0.9-0.7,1.6-1.6,1.6h-31.3c-0.9,0-1.6-0.7-1.6-1.6v-6.9
		C282.6,187.2,283.3,186.5,284.3,186.5z"/>
	<path class="st1" d="M284.3,186.5h31.3c0.9,0,1.6,0.7,1.6,1.6v6.9c0,0.9-0.7,1.6-1.6,1.6h-31.3c-0.9,0-1.6-0.7-1.6-1.6v-6.9
		C282.6,187.2,283.3,186.5,284.3,186.5z"/>
	<path class="st3" d="M272.5,186.5h31.3c0.9,0,1.6,0.7,1.6,1.6v6.9c0,0.9-0.7,1.6-1.6,1.6h-31.3c-0.9,0-1.6-0.7-1.6-1.6v-6.9
		C270.8,187.2,271.6,186.5,272.5,186.5z"/>
	<path class="st4" d="M302,191.6c0,1.2-1,2.1-2.1,2.1s-2.1-1-2.1-2.1s1-2.1,2.1-2.1S302,190.4,302,191.6L302,191.6z"/>
	<path class="st3" d="M300.9,191.6c0,0.6-0.5,1.1-1.1,1.1c-0.6,0-1.1-0.5-1.1-1.1c0-0.6,0.5-1.1,1.1-1.1c0,0,0,0,0,0
		C300.5,190.5,300.9,191,300.9,191.6z"/>
	<rect x="292.9" y="190.4" class="st4" width="2.4" height="2.4"/>
	<path class="st3" d="M284.3,175.4h31.3c0.9,0,1.6,0.7,1.6,1.6v6.9c0,0.9-0.7,1.6-1.6,1.6h-31.3c-0.9,0-1.6-0.7-1.6-1.6v-6.9
		C282.7,176.2,283.4,175.4,284.3,175.4z"/>
	<path class="st1" d="M284.3,175.4h31.3c0.9,0,1.6,0.7,1.6,1.6v6.9c0,0.9-0.7,1.6-1.6,1.6h-31.3c-0.9,0-1.6-0.7-1.6-1.6v-6.9
		C282.7,176.2,283.4,175.4,284.3,175.4z"/>
	<path class="st3" d="M272.5,175.4h31.3c0.9,0,1.6,0.7,1.6,1.6v6.9c0,0.9-0.7,1.6-1.6,1.6h-31.3c-0.9,0-1.6-0.7-1.6-1.6v-6.9
		C270.9,176.2,271.6,175.4,272.5,175.4z"/>
	<circle class="st4" cx="299.9" cy="180.5" r="2.1"/>
	<circle class="st3" cx="299.9" cy="180.5" r="1.1"/>
	<rect x="292.9" y="179.3" class="st4" width="2.4" height="2.4"/>
	<path class="st3" d="M284.4,164.3h31.3c0.9,0,1.6,0.7,1.6,1.6v6.9c0,0.9-0.7,1.6-1.6,1.6h-31.3c-0.9,0-1.6-0.7-1.6-1.6V166
		C282.7,165.1,283.5,164.3,284.4,164.3z"/>
	<path class="st1" d="M284.4,164.3h31.3c0.9,0,1.6,0.7,1.6,1.6v6.9c0,0.9-0.7,1.6-1.6,1.6h-31.3c-0.9,0-1.6-0.7-1.6-1.6V166
		C282.7,165.1,283.5,164.3,284.4,164.3z"/>
	<path class="st3" d="M272.6,164.3h31.3c0.9,0,1.6,0.7,1.6,1.6v6.9c0,0.9-0.7,1.6-1.6,1.6h-31.3c-0.9,0-1.6-0.7-1.6-1.6V166
		C271,165.1,271.7,164.3,272.6,164.3z"/>
	<circle class="st4" cx="300" cy="169.4" r="2.1"/>
	<circle class="st3" cx="300" cy="169.4" r="1.1"/>
	<rect x="293" y="168.2" class="st4" width="2.4" height="2.4"/>
	<path class="st3" d="M284.5,153.3h31.3c0.9,0,1.6,0.7,1.6,1.6v6.9c0,0.9-0.7,1.6-1.6,1.6h-31.3c-0.9,0-1.6-0.7-1.6-1.6v-6.9
		C282.8,154,283.6,153.3,284.5,153.3z"/>
	<path class="st1" d="M284.5,153.3h31.3c0.9,0,1.6,0.7,1.6,1.6v6.9c0,0.9-0.7,1.6-1.6,1.6h-31.3c-0.9,0-1.6-0.7-1.6-1.6v-6.9
		C282.8,154,283.6,153.3,284.5,153.3z"/>
	<path class="st3" d="M272.7,153.3H304c0.9,0,1.6,0.7,1.6,1.6v6.9c0,0.9-0.7,1.6-1.6,1.6h-31.3c-0.9,0-1.6-0.7-1.6-1.6v-6.9
		C271,154,271.8,153.3,272.7,153.3z"/>
	<path class="st4" d="M302.2,158.3c0,1.2-1,2.1-2.1,2.1s-2.1-1-2.1-2.1c0-1.2,1-2.1,2.1-2.1C301.2,156.2,302.2,157.2,302.2,158.3
		C302.2,158.3,302.2,158.3,302.2,158.3z"/>
	<path class="st3" d="M301.1,158.3c0,0.6-0.5,1.1-1.1,1.1c-0.6,0-1.1-0.5-1.1-1.1s0.5-1.1,1.1-1.1c0,0,0,0,0,0
		C300.7,157.2,301.1,157.7,301.1,158.3C301.1,158.3,301.1,158.3,301.1,158.3z"/>
	<rect x="293.1" y="157.1" class="st4" width="2.4" height="2.4"/>
	<path class="st3" d="M284.5,142.2h31.3c0.9,0,1.6,0.7,1.6,1.6v6.9c0,0.9-0.7,1.6-1.6,1.6h-31.3c-0.9,0-1.6-0.7-1.6-1.6v-6.9
		C282.9,142.9,283.6,142.2,284.5,142.2z"/>
	<path class="st1" d="M284.5,142.2h31.3c0.9,0,1.6,0.7,1.6,1.6v6.9c0,0.9-0.7,1.6-1.6,1.6h-31.3c-0.9,0-1.6-0.7-1.6-1.6v-6.9
		C282.9,142.9,283.6,142.2,284.5,142.2z"/>
	<path class="st3" d="M272.8,142.2H304c0.9,0,1.6,0.7,1.6,1.6v6.9c0,0.9-0.7,1.6-1.6,1.6h-31.3c-0.9,0-1.6-0.7-1.6-1.6v-6.9
		C271.1,142.9,271.8,142.2,272.8,142.2z"/>
	<path class="st4" d="M302.3,147.2c0,1.2-1,2.1-2.1,2.1c-1.2,0-2.1-1-2.1-2.1c0-1.2,1-2.1,2.1-2.1S302.3,146.1,302.3,147.2
		C302.3,147.2,302.3,147.2,302.3,147.2z"/>
	<path class="st3" d="M301.2,147.2c0,0.6-0.5,1.1-1.1,1.1c-0.6,0-1.1-0.5-1.1-1.1c0-0.6,0.5-1.1,1.1-1.1c0,0,0,0,0,0
		C300.7,146.2,301.2,146.7,301.2,147.2z"/>
	<rect x="293.1" y="146" class="st4" width="2.4" height="2.4"/>
	<path class="st3" d="M284.6,131.1h31.3c0.9,0,1.6,0.7,1.6,1.6v6.9c0,0.9-0.7,1.6-1.6,1.6h-31.3c-0.9,0-1.6-0.7-1.6-1.6v-6.9
		C283,131.8,283.7,131.1,284.6,131.1z"/>
	<path class="st1" d="M284.6,131.1h31.3c0.9,0,1.6,0.7,1.6,1.6v6.9c0,0.9-0.7,1.6-1.6,1.6h-31.3c-0.9,0-1.6-0.7-1.6-1.6v-6.9
		C283,131.8,283.7,131.1,284.6,131.1z"/>
	<path class="st3" d="M272.8,131.1h31.3c0.9,0,1.6,0.7,1.6,1.6v6.9c0,0.9-0.7,1.6-1.6,1.6h-31.3c-0.9,0-1.6-0.7-1.6-1.6v-6.9
		C271.2,131.8,271.9,131.1,272.8,131.1z"/>
	<path class="st4" d="M302.3,136.2c0,1.2-0.9,2.1-2.1,2.1s-2.1-0.9-2.1-2.1c0-1.2,0.9-2.1,2.1-2.1c0,0,0,0,0,0
		C301.4,134.1,302.3,135,302.3,136.2C302.3,136.2,302.3,136.2,302.3,136.2z"/>
	<path class="st3" d="M301.3,136.2c-0.1,0.6-0.6,1-1.2,1c-0.5,0-0.9-0.5-1-1c-0.1-0.6,0.4-1.1,1-1.2c0.6-0.1,1.1,0.4,1.2,1
		C301.3,136.1,301.3,136.1,301.3,136.2z"/>
	<rect x="293.2" y="135" class="st4" width="2.4" height="2.4"/>
	<path class="st3" d="M284.7,120h31.3c0.9,0,1.6,0.7,1.6,1.6v6.9c0,0.9-0.7,1.6-1.6,1.6h-31.3c-0.9,0-1.6-0.7-1.6-1.6v-6.9
		C283,120.7,283.8,120,284.7,120z"/>
	<path class="st1" d="M284.7,120h31.3c0.9,0,1.6,0.7,1.6,1.6v6.9c0,0.9-0.7,1.6-1.6,1.6h-31.3c-0.9,0-1.6-0.7-1.6-1.6v-6.9
		C283,120.7,283.8,120,284.7,120z"/>
	<path class="st3" d="M272.9,120h31.3c0.9,0,1.6,0.7,1.6,1.6v6.9c0,0.9-0.7,1.6-1.6,1.6h-31.3c-0.9,0-1.6-0.7-1.6-1.6v-6.9
		C271.2,120.7,272,120,272.9,120z"/>
	<path class="st4" d="M302.4,125.1c0,1.2-1,2.1-2.1,2.1c-1.2,0-2.1-1-2.1-2.1s1-2.1,2.1-2.1c0,0,0,0,0,0
		C301.5,122.9,302.4,123.9,302.4,125.1C302.4,125.1,302.4,125.1,302.4,125.1z"/>
	<path class="st3" d="M301.4,125.1c-0.1,0.6-0.6,1-1.2,1c-0.5,0-0.9-0.5-1-1c-0.1-0.6,0.4-1.1,1-1.2c0.6-0.1,1.1,0.4,1.2,1
		C301.4,124.9,301.4,125,301.4,125.1z"/>
	<rect x="293.3" y="123.9" class="st4" width="2.4" height="2.4"/>
	<path class="st3" d="M284.7,108.9H316c0.9,0,1.6,0.7,1.6,1.6v6.9c0,0.9-0.7,1.6-1.6,1.6h-31.3c-0.9,0-1.6-0.7-1.6-1.6v-6.9
		C283.1,109.7,283.8,108.9,284.7,108.9z"/>
	<path class="st1" d="M284.7,108.9H316c0.9,0,1.6,0.7,1.6,1.6v6.9c0,0.9-0.7,1.6-1.6,1.6h-31.3c-0.9,0-1.6-0.7-1.6-1.6v-6.9
		C283.1,109.7,283.8,108.9,284.7,108.9z"/>
	<path class="st3" d="M273,108.9h31.3c0.9,0,1.6,0.7,1.6,1.6v6.9c0,0.9-0.7,1.6-1.6,1.6H273c-0.9,0-1.6-0.7-1.6-1.6v-6.9
		C271.3,109.7,272.1,108.9,273,108.9z"/>
	<path class="st4" d="M302.5,114c0,1.2-0.9,2.1-2.1,2.1s-2.1-0.9-2.1-2.1c0-1.2,0.9-2.1,2.1-2.1c0,0,0,0,0,0
		C301.5,111.9,302.5,112.8,302.5,114C302.5,114,302.5,114,302.5,114z"/>
	<path class="st3" d="M301.4,114c0,0.6-0.5,1.1-1.1,1.1c-0.6,0-1.1-0.5-1.1-1.1c0-0.6,0.5-1.1,1.1-1.1c0,0,0,0,0,0
		C300.9,112.9,301.4,113.4,301.4,114z"/>
	<rect x="293.3" y="112.8" class="st4" width="2.4" height="2.4"/>
	<path class="st3" d="M284.8,97.8h31.3c0.9,0,1.6,0.7,1.6,1.6v6.9c0,0.9-0.7,1.6-1.6,1.6h-31.3c-0.9,0-1.6-0.7-1.6-1.6v-6.9
		C283.2,98.6,283.9,97.8,284.8,97.8z"/>
	<path class="st1" d="M284.8,97.8h31.3c0.9,0,1.6,0.7,1.6,1.6v6.9c0,0.9-0.7,1.6-1.6,1.6h-31.3c-0.9,0-1.6-0.7-1.6-1.6v-6.9
		C283.2,98.6,283.9,97.8,284.8,97.8z"/>
	<path class="st3" d="M273,97.8h31.3c0.9,0,1.6,0.7,1.6,1.6v6.9c0,0.9-0.7,1.6-1.6,1.6H273c-0.9,0-1.6-0.7-1.6-1.6v-6.9
		C271.4,98.6,272.1,97.8,273,97.8z"/>
	<path class="st4" d="M302.5,102.9c0,1.2-0.9,2.1-2.1,2.1s-2.1-0.9-2.1-2.1c0-1.2,0.9-2.1,2.1-2.1c0,0,0,0,0,0
		C301.6,100.8,302.5,101.7,302.5,102.9C302.5,102.9,302.5,102.9,302.5,102.9z"/>
	<path class="st3" d="M301.5,102.9c-0.1,0.6-0.6,1-1.2,1c-0.5,0-0.9-0.5-1-1c-0.1-0.6,0.4-1.1,1-1.2c0.6-0.1,1.1,0.4,1.2,1
		C301.5,102.8,301.5,102.8,301.5,102.9z"/>
	<rect x="293.4" y="101.7" class="st4" width="2.4" height="2.4"/>
	<path class="st3" d="M284.9,86.8h31.3c0.9,0,1.6,0.7,1.6,1.6v6.9c0,0.9-0.7,1.6-1.6,1.6h-31.3c-0.9,0-1.6-0.7-1.6-1.6v-6.9
		C283.2,87.5,284,86.8,284.9,86.8z"/>
	<path class="st1" d="M284.9,86.8h31.3c0.9,0,1.6,0.7,1.6,1.6v6.9c0,0.9-0.7,1.6-1.6,1.6h-31.3c-0.9,0-1.6-0.7-1.6-1.6v-6.9
		C283.2,87.5,284,86.8,284.9,86.8z"/>
	<path class="st3" d="M273.1,86.8h31.3c0.9,0,1.6,0.7,1.6,1.6v6.9c0,0.9-0.7,1.6-1.6,1.6h-31.3c-0.9,0-1.6-0.7-1.6-1.6v-6.9
		C271.5,87.5,272.2,86.8,273.1,86.8z"/>
	<path class="st4" d="M302.6,91.8c0,1.2-1,2.1-2.1,2.1c-1.2,0-2.1-1-2.1-2.1s1-2.1,2.1-2.1c0,0,0,0,0,0
		C301.7,89.7,302.6,90.7,302.6,91.8C302.6,91.8,302.6,91.8,302.6,91.8z"/>
	<path class="st3" d="M301.6,91.8c-0.1,0.6-0.6,1-1.2,1c-0.5,0-0.9-0.5-1-1c-0.1-0.6,0.4-1.1,1-1.2c0.6-0.1,1.1,0.4,1.2,1
		C301.6,91.7,301.6,91.8,301.6,91.8z"/>
	<rect x="293.5" y="90.6" class="st4" width="2.4" height="2.4"/>
	<rect x="40.6" y="78.3" class="st2" width="130.3" height="201.5"/>
	<rect x="68.5" y="78.3" class="st0" width="106.4" height="201.5"/>
	<rect x="72" y="80.9" class="st2" width="99.5" height="198.9"/>
	<path class="st3" d="M154.3,274.2h-31.3c-0.9,0-1.6-0.7-1.6-1.6v-6.9c0-0.9,0.7-1.6,1.6-1.6h31.3c0.9,0,1.6,0.7,1.6,1.6v6.9
		C156,273.5,155.2,274.2,154.3,274.2z"/>
	<path class="st1" d="M154.3,274.2h-31.3c-0.9,0-1.6-0.7-1.6-1.6v-6.9c0-0.9,0.7-1.6,1.6-1.6h31.3c0.9,0,1.6,0.7,1.6,1.6v6.9
		C156,273.5,155.2,274.2,154.3,274.2z"/>
	<path class="st3" d="M166.1,274.2h-31.3c-0.9,0-1.6-0.7-1.6-1.6v-6.9c0-0.9,0.7-1.6,1.6-1.6h31.3c0.9,0,1.6,0.7,1.6,1.6v6.9
		C167.8,273.5,167,274.2,166.1,274.2z"/>
	<circle class="st4" cx="138.7" cy="269.2" r="2.1"/>
	<circle class="st3" cx="138.7" cy="269.2" r="1.1"/>
	<rect x="143.3" y="267.9" class="st4" width="2.4" height="2.4"/>
	<path class="st3" d="M154.3,263.2h-31.3c-0.9,0-1.6-0.7-1.6-1.6v-6.9c0-0.9,0.7-1.6,1.6-1.6h31.3c0.9,0,1.6,0.7,1.6,1.6v6.9
		C156,262.4,155.2,263.2,154.3,263.2z"/>
	<path class="st1" d="M154.3,263.2h-31.3c-0.9,0-1.6-0.7-1.6-1.6v-6.9c0-0.9,0.7-1.6,1.6-1.6h31.3c0.9,0,1.6,0.7,1.6,1.6v6.9
		C156,262.4,155.2,263.2,154.3,263.2z"/>
	<path class="st3" d="M166.1,263.2h-31.3c-0.9,0-1.6-0.7-1.6-1.6v-6.9c0-0.9,0.7-1.6,1.6-1.6h31.3c0.9,0,1.6,0.7,1.6,1.6v6.9
		C167.8,262.4,167,263.2,166.1,263.2z"/>
	<path class="st4" d="M136.6,258.1c0,1.2,0.9,2.1,2.1,2.1c1.2,0,2.1-0.9,2.1-2.1s-0.9-2.1-2.1-2.1c0,0,0,0,0,0
		C137.6,255.9,136.6,256.9,136.6,258.1z"/>
	<path class="st3" d="M137.6,258.1c-0.1,0.6,0.4,1.1,1,1.2c0.6,0.1,1.1-0.4,1.2-1c0-0.1,0-0.1,0-0.2c-0.1-0.6-0.6-1-1.2-1
		C138.1,257.1,137.7,257.6,137.6,258.1z"/>
	<rect x="143.3" y="256.9" class="st4" width="2.4" height="2.4"/>
	<path class="st3" d="M154.3,252.1h-31.3c-0.9,0-1.6-0.7-1.6-1.6v-6.9c0-0.9,0.7-1.6,1.6-1.6h31.3c0.9,0,1.6,0.7,1.6,1.6v6.9
		C156,251.3,155.2,252.1,154.3,252.1z"/>
	<path class="st1" d="M154.3,252.1h-31.3c-0.9,0-1.6-0.7-1.6-1.6v-6.9c0-0.9,0.7-1.6,1.6-1.6h31.3c0.9,0,1.6,0.7,1.6,1.6v6.9
		C156,251.3,155.2,252.1,154.3,252.1z"/>
	<path class="st3" d="M166.1,252.1h-31.3c-0.9,0-1.6-0.7-1.6-1.6v-6.9c0-0.9,0.7-1.6,1.6-1.6h31.3c0.9,0,1.6,0.7,1.6,1.6v6.9
		C167.8,251.3,167,252.1,166.1,252.1z"/>
	<path class="st4" d="M136.6,247c0,1.2,0.9,2.1,2.1,2.1c1.2,0,2.1-0.9,2.1-2.1s-0.9-2.1-2.1-2.1c0,0,0,0,0,0
		C137.6,244.9,136.6,245.8,136.6,247C136.6,247,136.6,247,136.6,247z"/>
	<path class="st3" d="M137.6,247c-0.1,0.6,0.4,1.1,1,1.2c0.6,0.1,1.1-0.4,1.2-1c0-0.1,0-0.1,0-0.2c-0.1-0.6-0.6-1-1.2-1
		C138.1,246.1,137.7,246.5,137.6,247z"/>
	<rect x="143.3" y="245.8" class="st4" width="2.4" height="2.4"/>
	<path class="st3" d="M154.3,241h-31.3c-0.9,0-1.6-0.7-1.6-1.6v-6.9c0-0.9,0.7-1.6,1.6-1.6h31.3c0.9,0,1.6,0.7,1.6,1.6v6.9
		C156,240.2,155.2,241,154.3,241z"/>
	<path class="st1" d="M154.3,241h-31.3c-0.9,0-1.6-0.7-1.6-1.6v-6.9c0-0.9,0.7-1.6,1.6-1.6h31.3c0.9,0,1.6,0.7,1.6,1.6v6.9
		C156,240.2,155.2,241,154.3,241z"/>
	<path class="st3" d="M166.1,241h-31.3c-0.9,0-1.6-0.7-1.6-1.6v-6.9c0-0.9,0.7-1.6,1.6-1.6h31.3c0.9,0,1.6,0.7,1.6,1.6v6.9
		C167.8,240.2,167,241,166.1,241z"/>
	<path class="st4" d="M136.6,235.9c0,1.2,1,2.1,2.1,2.1s2.1-1,2.1-2.1c0-1.2-1-2.1-2.1-2.1C137.6,233.8,136.6,234.7,136.6,235.9
		C136.6,235.9,136.6,235.9,136.6,235.9z"/>
	<path class="st3" d="M137.6,235.9c0,0.6,0.5,1.1,1.1,1.1s1.1-0.5,1.1-1.1c0-0.6-0.5-1.1-1.1-1.1l0,0
		C138.1,234.8,137.7,235.3,137.6,235.9C137.6,235.9,137.6,235.9,137.6,235.9z"/>
	<rect x="143.3" y="234.7" class="st4" width="2.4" height="2.4"/>
	<path class="st3" d="M154.3,229.9H123c-0.9,0-1.6-0.7-1.6-1.6v-6.9c0-0.9,0.7-1.6,1.6-1.6h31.3c0.9,0,1.6,0.7,1.6,1.6v6.9
		C155.9,229.2,155.2,229.9,154.3,229.9z"/>
	<path class="st1" d="M154.3,229.9H123c-0.9,0-1.6-0.7-1.6-1.6v-6.9c0-0.9,0.7-1.6,1.6-1.6h31.3c0.9,0,1.6,0.7,1.6,1.6v6.9
		C155.9,229.2,155.2,229.9,154.3,229.9z"/>
	<path class="st3" d="M166,229.9h-31.3c-0.9,0-1.6-0.7-1.6-1.6v-6.9c0-0.9,0.7-1.6,1.6-1.6H166c0.9,0,1.6,0.7,1.6,1.6v6.9
		C167.7,229.2,167,229.9,166,229.9z"/>
	<circle class="st4" cx="138.7" cy="224.8" r="2.1"/>
	<circle class="st3" cx="138.7" cy="224.8" r="1.1"/>
	<rect x="143.2" y="223.6" class="st4" width="2.4" height="2.4"/>
	<path class="st3" d="M154.2,218.8h-31.3c-0.9,0-1.6-0.7-1.6-1.6v-6.9c0-0.9,0.7-1.6,1.6-1.6h31.3c0.9,0,1.6,0.7,1.6,1.6v6.9
		C155.8,218.1,155.1,218.8,154.2,218.8z"/>
	<path class="st1" d="M154.2,218.8h-31.3c-0.9,0-1.6-0.7-1.6-1.6v-6.9c0-0.9,0.7-1.6,1.6-1.6h31.3c0.9,0,1.6,0.7,1.6,1.6v6.9
		C155.8,218.1,155.1,218.8,154.2,218.8z"/>
	<path class="st3" d="M166,218.8h-31.3c-0.9,0-1.6-0.7-1.6-1.6v-6.9c0-0.9,0.7-1.6,1.6-1.6H166c0.9,0,1.6,0.7,1.6,1.6v6.9
		C167.6,218.1,166.9,218.8,166,218.8z"/>
	<path class="st4" d="M136.5,213.7c0,1.2,0.9,2.1,2.1,2.1c1.2,0,2.1-0.9,2.1-2.1s-0.9-2.1-2.1-2.1c0,0,0,0,0,0
		C137.4,211.6,136.5,212.6,136.5,213.7C136.5,213.7,136.5,213.7,136.5,213.7z"/>
	<circle class="st3" cx="138.6" cy="213.7" r="1.1"/>
	<rect x="143.2" y="212.5" class="st4" width="2.4" height="2.4"/>
	<path class="st3" d="M154.1,207.7h-31.3c-0.9,0-1.6-0.7-1.6-1.6v-6.9c0-0.9,0.7-1.6,1.6-1.6h31.3c0.9,0,1.6,0.7,1.6,1.6v6.9
		C155.8,207,155,207.7,154.1,207.7z"/>
	<path class="st1" d="M154.1,207.7h-31.3c-0.9,0-1.6-0.7-1.6-1.6v-6.9c0-0.9,0.7-1.6,1.6-1.6h31.3c0.9,0,1.6,0.7,1.6,1.6v6.9
		C155.8,207,155,207.7,154.1,207.7z"/>
	<path class="st3" d="M165.9,207.7h-31.3c-0.9,0-1.6-0.7-1.6-1.6v-6.9c0-0.9,0.7-1.6,1.6-1.6h31.3c0.9,0,1.6,0.7,1.6,1.6v6.9
		C167.6,207,166.8,207.7,165.9,207.7z"/>
	<path class="st4" d="M136.4,202.7c0,1.2,1,2.1,2.1,2.1c1.2,0,2.1-1,2.1-2.1c0-1.2-1-2.1-2.1-2.1
		C137.4,200.5,136.4,201.5,136.4,202.7C136.4,202.7,136.4,202.7,136.4,202.7z"/>
	<path class="st3" d="M137.4,202.7c0,0.6,0.5,1.1,1.1,1.1s1.1-0.5,1.1-1.1c0-0.6-0.5-1.1-1.1-1.1l0,0
		C137.9,201.6,137.4,202.1,137.4,202.7C137.4,202.7,137.4,202.7,137.4,202.7z"/>
	<rect x="143.1" y="201.5" class="st4" width="2.4" height="2.4"/>
	<path class="st3" d="M154.1,196.7h-31.3c-0.9,0-1.6-0.7-1.6-1.6v-6.9c0-0.9,0.7-1.6,1.6-1.6h31.3c0.9,0,1.6,0.7,1.6,1.6v6.9
		C155.7,195.9,155,196.7,154.1,196.7z"/>
	<path class="st1" d="M154.1,196.7h-31.3c-0.9,0-1.6-0.7-1.6-1.6v-6.9c0-0.9,0.7-1.6,1.6-1.6h31.3c0.9,0,1.6,0.7,1.6,1.6v6.9
		C155.7,195.9,155,196.7,154.1,196.7z"/>
	<path class="st3" d="M165.8,196.7h-31.3c-0.9,0-1.6-0.7-1.6-1.6v-6.9c0-0.9,0.7-1.6,1.6-1.6h31.3c0.9,0,1.6,0.7,1.6,1.6v6.9
		C167.5,195.9,166.7,196.7,165.8,196.7z"/>
	<path class="st4" d="M136.3,191.6c0,1.2,1,2.1,2.1,2.1s2.1-1,2.1-2.1c0-1.2-1-2.1-2.1-2.1S136.3,190.4,136.3,191.6L136.3,191.6z"/>
	<path class="st3" d="M137.4,191.6c0,0.6,0.5,1.1,1.1,1.1s1.1-0.5,1.1-1.1c0-0.6-0.5-1.1-1.1-1.1c0,0,0,0,0,0
		C137.9,190.5,137.4,191,137.4,191.6z"/>
	<rect x="143" y="190.4" class="st4" width="2.4" height="2.4"/>
	<path class="st3" d="M154,185.6h-31.3c-0.9,0-1.6-0.7-1.6-1.6v-6.9c0-0.9,0.7-1.6,1.6-1.6H154c0.9,0,1.6,0.7,1.6,1.6v6.9
		C155.6,184.8,154.9,185.6,154,185.6z"/>
	<path class="st1" d="M154,185.6h-31.3c-0.9,0-1.6-0.7-1.6-1.6v-6.9c0-0.9,0.7-1.6,1.6-1.6H154c0.9,0,1.6,0.7,1.6,1.6v6.9
		C155.6,184.8,154.9,185.6,154,185.6z"/>
	<path class="st3" d="M165.8,185.6h-31.3c-0.9,0-1.6-0.7-1.6-1.6v-6.9c0-0.9,0.7-1.6,1.6-1.6h31.3c0.9,0,1.6,0.7,1.6,1.6v6.9
		C167.4,184.8,166.7,185.6,165.8,185.6z"/>
	<path class="st4" d="M136.3,180.5c0,1.2,1,2.1,2.1,2.1s2.1-1,2.1-2.1c0-1.2-1-2.1-2.1-2.1S136.3,179.3,136.3,180.5L136.3,180.5z"/>
	<circle class="st3" cx="138.4" cy="180.5" r="1.1"/>
	<rect x="142.9" y="179.3" class="st4" width="2.4" height="2.4"/>
	<path class="st3" d="M153.9,174.5h-31.3c-0.9,0-1.6-0.7-1.6-1.6V166c0-0.9,0.7-1.6,1.6-1.6h31.3c0.9,0,1.6,0.7,1.6,1.6v6.9
		C155.6,173.8,154.8,174.5,153.9,174.5z"/>
	<path class="st1" d="M153.9,174.5h-31.3c-0.9,0-1.6-0.7-1.6-1.6V166c0-0.9,0.7-1.6,1.6-1.6h31.3c0.9,0,1.6,0.7,1.6,1.6v6.9
		C155.6,173.8,154.8,174.5,153.9,174.5z"/>
	<path class="st3" d="M165.7,174.5h-31.3c-0.9,0-1.6-0.7-1.6-1.6V166c0-0.9,0.7-1.6,1.6-1.6h31.3c0.9,0,1.6,0.7,1.6,1.6v6.9
		C167.3,173.8,166.6,174.5,165.7,174.5z"/>
	<path class="st4" d="M136.2,169.4c0,1.2,1,2.1,2.1,2.1s2.1-1,2.1-2.1c0-1.2-1-2.1-2.1-2.1S136.2,168.2,136.2,169.4L136.2,169.4z"/>
	<path class="st3" d="M137.2,169.4c0,0.6,0.5,1.1,1.1,1.1s1.1-0.5,1.1-1.1c0-0.6-0.5-1.1-1.1-1.1l0,0
		C137.7,168.3,137.2,168.8,137.2,169.4C137.2,169.4,137.2,169.4,137.2,169.4z"/>
	<rect x="142.9" y="168.2" class="st4" width="2.4" height="2.4"/>
	<path class="st3" d="M153.8,163.4h-31.3c-0.9,0-1.6-0.7-1.6-1.6v-6.9c0-0.9,0.7-1.6,1.6-1.6h31.3c0.9,0,1.6,0.7,1.6,1.6v6.9
		C155.5,162.7,154.8,163.4,153.8,163.4z"/>
	<path class="st1" d="M153.8,163.4h-31.3c-0.9,0-1.6-0.7-1.6-1.6v-6.9c0-0.9,0.7-1.6,1.6-1.6h31.3c0.9,0,1.6,0.7,1.6,1.6v6.9
		C155.5,162.7,154.8,163.4,153.8,163.4z"/>
	<path class="st3" d="M165.6,163.4h-31.3c-0.9,0-1.6-0.7-1.6-1.6v-6.9c0-0.9,0.7-1.6,1.6-1.6h31.3c0.9,0,1.6,0.7,1.6,1.6v6.9
		C167.3,162.7,166.5,163.4,165.6,163.4z"/>
	<path class="st4" d="M136.1,158.3c0,1.2,1,2.1,2.1,2.1c1.2,0,2.1-1,2.1-2.1c0-1.2-1-2.1-2.1-2.1
		C137.1,156.2,136.1,157.2,136.1,158.3C136.1,158.3,136.1,158.3,136.1,158.3z"/>
	<path class="st3" d="M137.2,158.3c0,0.6,0.5,1.1,1.1,1.1s1.1-0.5,1.1-1.1c0-0.6-0.5-1.1-1.1-1.1l0,0
		C137.6,157.2,137.2,157.7,137.2,158.3z"/>
	<rect x="142.8" y="157.1" class="st4" width="2.4" height="2.4"/>
	<path class="st3" d="M153.8,152.3h-31.3c-0.9,0-1.6-0.7-1.6-1.6v-6.9c0-0.9,0.7-1.6,1.6-1.6h31.3c0.9,0,1.6,0.7,1.6,1.6v6.9
		C155.4,151.6,154.7,152.3,153.8,152.3z"/>
	<path class="st1" d="M153.8,152.3h-31.3c-0.9,0-1.6-0.7-1.6-1.6v-6.9c0-0.9,0.7-1.6,1.6-1.6h31.3c0.9,0,1.6,0.7,1.6,1.6v6.9
		C155.4,151.6,154.7,152.3,153.8,152.3z"/>
	<path class="st3" d="M165.5,152.3h-31.3c-0.9,0-1.6-0.7-1.6-1.6v-6.9c0-0.9,0.7-1.6,1.6-1.6h31.3c0.9,0,1.6,0.7,1.6,1.6v6.9
		C167.2,151.6,166.5,152.3,165.5,152.3z"/>
	<path class="st4" d="M136,147.2c0,1.2,1,2.1,2.1,2.1c1.2,0,2.1-1,2.1-2.1c0-1.2-1-2.1-2.1-2.1S136,146.1,136,147.2
		C136,147.2,136,147.2,136,147.2z"/>
	<path class="st3" d="M137.1,147.2c-0.1,0.6,0.4,1.1,1,1.2c0.6,0.1,1.1-0.4,1.2-1c0-0.1,0-0.1,0-0.2c-0.1-0.6-0.6-1-1.2-1
		C137.5,146.3,137.1,146.7,137.1,147.2z"/>
	<rect x="142.7" y="146" class="st4" width="2.4" height="2.4"/>
	<path class="st3" d="M153.7,141.2h-31.3c-0.9,0-1.6-0.7-1.6-1.6v-6.9c0-0.9,0.7-1.6,1.6-1.6h31.3c0.9,0,1.6,0.7,1.6,1.6v6.9
		C155.4,140.5,154.6,141.2,153.7,141.2z"/>
	<path class="st1" d="M153.7,141.2h-31.3c-0.9,0-1.6-0.7-1.6-1.6v-6.9c0-0.9,0.7-1.6,1.6-1.6h31.3c0.9,0,1.6,0.7,1.6,1.6v6.9
		C155.4,140.5,154.6,141.2,153.7,141.2z"/>
	<path class="st3" d="M165.5,141.2h-31.3c-0.9,0-1.6-0.7-1.6-1.6v-6.9c0-0.9,0.7-1.6,1.6-1.6h31.3c0.9,0,1.6,0.7,1.6,1.6v6.9
		C167.1,140.5,166.4,141.2,165.5,141.2z"/>
	<path class="st4" d="M136,136.2c0,1.2,1,2.1,2.1,2.1c1.2,0,2.1-1,2.1-2.1c0-1.2-1-2.1-2.1-2.1S136,135,136,136.2
		C136,136.2,136,136.2,136,136.2z"/>
	<path class="st3" d="M137,136.2c0,0.6,0.5,1.1,1.1,1.1c0.6,0,1.1-0.5,1.1-1.1c0-0.6-0.5-1.1-1.1-1.1l0,0
		C137.5,135.1,137,135.6,137,136.2C137,136.2,137,136.2,137,136.2z"/>
	<rect x="142.7" y="134.9" class="st4" width="2.4" height="2.4"/>
	<path class="st3" d="M153.6,130.2h-31.3c-0.9,0-1.6-0.7-1.6-1.6v-6.9c0-0.9,0.7-1.6,1.6-1.6h31.3c0.9,0,1.6,0.7,1.6,1.6v6.9
		C155.3,129.4,154.5,130.2,153.6,130.2z"/>
	<path class="st1" d="M153.6,130.2h-31.3c-0.9,0-1.6-0.7-1.6-1.6v-6.9c0-0.9,0.7-1.6,1.6-1.6h31.3c0.9,0,1.6,0.7,1.6,1.6v6.9
		C155.3,129.4,154.5,130.2,153.6,130.2z"/>
	<path class="st3" d="M165.4,130.2h-31.3c-0.9,0-1.6-0.7-1.6-1.6v-6.9c0-0.9,0.7-1.6,1.6-1.6h31.3c0.9,0,1.6,0.7,1.6,1.6v6.9
		C167.1,129.4,166.3,130.2,165.4,130.2z"/>
	<circle class="st4" cx="138" cy="125.1" r="2.1"/>
	<circle class="st3" cx="138" cy="125.1" r="1.1"/>
	<rect x="142.6" y="123.9" class="st4" width="2.4" height="2.4"/>
	<path class="st3" d="M153.6,119.1h-31.3c-0.9,0-1.6-0.7-1.6-1.6v-6.9c0-0.9,0.7-1.6,1.6-1.6h31.3c0.9,0,1.6,0.7,1.6,1.6v6.9
		C155.2,118.3,154.5,119.1,153.6,119.1z"/>
	<path class="st1" d="M153.6,119.1h-31.3c-0.9,0-1.6-0.7-1.6-1.6v-6.9c0-0.9,0.7-1.6,1.6-1.6h31.3c0.9,0,1.6,0.7,1.6,1.6v6.9
		C155.2,118.3,154.5,119.1,153.6,119.1z"/>
	<path class="st3" d="M165.3,119.1h-31.3c-0.9,0-1.6-0.7-1.6-1.6v-6.9c0-0.9,0.7-1.6,1.6-1.6h31.3c0.9,0,1.6,0.7,1.6,1.6v6.9
		C167,118.3,166.2,119.1,165.3,119.1z"/>
	<path class="st4" d="M135.8,114c0,1.2,1,2.1,2.1,2.1c1.2,0,2.1-1,2.1-2.1c0-1.2-1-2.1-2.1-2.1S135.8,112.8,135.8,114
		C135.8,114,135.8,114,135.8,114z"/>
	<circle class="st3" cx="138" cy="114" r="1.1"/>
	<rect x="142.5" y="112.8" class="st4" width="2.4" height="2.4"/>
	<path class="st3" d="M153.5,108h-31.3c-0.9,0-1.6-0.7-1.6-1.6v-6.9c0-0.9,0.7-1.6,1.6-1.6h31.3c0.9,0,1.6,0.7,1.6,1.6v6.9
		C155.1,107.3,154.4,108,153.5,108z"/>
	<path class="st1" d="M153.5,108h-31.3c-0.9,0-1.6-0.7-1.6-1.6v-6.9c0-0.9,0.7-1.6,1.6-1.6h31.3c0.9,0,1.6,0.7,1.6,1.6v6.9
		C155.1,107.3,154.4,108,153.5,108z"/>
	<path class="st3" d="M165.3,108H134c-0.9,0-1.6-0.7-1.6-1.6v-6.9c0-0.9,0.7-1.6,1.6-1.6h31.3c0.9,0,1.6,0.7,1.6,1.6v6.9
		C166.9,107.3,166.2,108,165.3,108z"/>
	<path class="st4" d="M135.8,102.9c0,1.2,1,2.1,2.1,2.1c1.2,0,2.1-1,2.1-2.1c0-1.2-1-2.1-2.1-2.1S135.8,101.7,135.8,102.9
		C135.8,102.9,135.8,102.9,135.8,102.9z"/>
	<path class="st3" d="M136.8,102.9c0,0.6,0.5,1.1,1.1,1.1s1.1-0.5,1.1-1.1c0-0.6-0.5-1.1-1.1-1.1
		C137.3,101.8,136.8,102.3,136.8,102.9C136.8,102.9,136.8,102.9,136.8,102.9z"/>
	<rect x="142.5" y="101.7" class="st4" width="2.4" height="2.4"/>
	<path class="st3" d="M153.4,96.9h-31.3c-0.9,0-1.6-0.7-1.6-1.6v-6.9c0-0.9,0.7-1.6,1.6-1.6h31.3c0.9,0,1.6,0.7,1.6,1.6v6.9
		C155.1,96.2,154.3,96.9,153.4,96.9z"/>
	<path class="st1" d="M153.4,96.9h-31.3c-0.9,0-1.6-0.7-1.6-1.6v-6.9c0-0.9,0.7-1.6,1.6-1.6h31.3c0.9,0,1.6,0.7,1.6,1.6v6.9
		C155.1,96.2,154.3,96.9,153.4,96.9z"/>
	<path class="st3" d="M165.2,96.9h-31.3c-0.9,0-1.6-0.7-1.6-1.6v-6.9c0-0.9,0.7-1.6,1.6-1.6h31.3c0.9,0,1.6,0.7,1.6,1.6v6.9
		C166.8,96.2,166.1,96.9,165.2,96.9z"/>
	<path class="st4" d="M135.7,91.8c0,1.2,1,2.1,2.1,2.1c1.2,0,2.1-1,2.1-2.1c0-1.2-1-2.1-2.1-2.1C136.7,89.7,135.7,90.7,135.7,91.8
		C135.7,91.8,135.7,91.8,135.7,91.8z"/>
	<path class="st3" d="M136.8,91.8c0,0.6,0.5,1.1,1.1,1.1s1.1-0.5,1.1-1.1c0-0.6-0.5-1.1-1.1-1.1C137.2,90.7,136.8,91.2,136.8,91.8
		C136.8,91.8,136.8,91.8,136.8,91.8z"/>
	<rect x="142.4" y="90.6" class="st4" width="2.4" height="2.4"/>
	<path class="st3" d="M111.5,274.2H80.2c-0.9,0-1.6-0.7-1.6-1.6v-6.9c0-0.9,0.7-1.6,1.6-1.6h31.3c0.9,0,1.6,0.7,1.6,1.6v6.9
		C113.1,273.5,112.4,274.2,111.5,274.2z"/>
	<path class="st1" d="M111.5,274.2H80.2c-0.9,0-1.6-0.7-1.6-1.6v-6.9c0-0.9,0.7-1.6,1.6-1.6h31.3c0.9,0,1.6,0.7,1.6,1.6v6.9
		C113.1,273.5,112.4,274.2,111.5,274.2z"/>
	<path class="st3" d="M123.3,274.2H92c-0.9,0-1.6-0.7-1.6-1.6v-6.9c0-0.9,0.7-1.6,1.6-1.6h31.3c0.9,0,1.6,0.7,1.6,1.6v6.9
		C124.9,273.5,124.2,274.2,123.3,274.2z"/>
	<path class="st4" d="M93.8,269.2c0,1.2,1,2.1,2.1,2.1s2.1-1,2.1-2.1c0-1.2-1-2.1-2.1-2.1S93.8,268,93.8,269.2L93.8,269.2z"/>
	<path class="st3" d="M94.8,269.2c0,0.6,0.5,1.1,1.1,1.1s1.1-0.5,1.1-1.1c0-0.6-0.5-1.1-1.1-1.1l0,0
		C95.3,268.1,94.8,268.6,94.8,269.2C94.8,269.2,94.8,269.2,94.8,269.2z"/>
	<rect x="100.4" y="267.9" class="st4" width="2.4" height="2.4"/>
	<path class="st3" d="M111.5,263.2H80.2c-0.9,0-1.6-0.7-1.6-1.6v-6.9c0-0.9,0.7-1.6,1.6-1.6h31.3c0.9,0,1.6,0.7,1.6,1.6v6.9
		C113.1,262.4,112.4,263.2,111.5,263.2z"/>
	<path class="st1" d="M111.5,263.2H80.2c-0.9,0-1.6-0.7-1.6-1.6v-6.9c0-0.9,0.7-1.6,1.6-1.6h31.3c0.9,0,1.6,0.7,1.6,1.6v6.9
		C113.1,262.4,112.4,263.2,111.5,263.2z"/>
	<path class="st3" d="M123.3,263.2H92c-0.9,0-1.6-0.7-1.6-1.6v-6.9c0-0.9,0.7-1.6,1.6-1.6h31.3c0.9,0,1.6,0.7,1.6,1.6v6.9
		C124.9,262.4,124.2,263.2,123.3,263.2z"/>
	<path class="st4" d="M93.8,258.1c0,1.2,0.9,2.1,2.1,2.1c1.2,0,2.1-0.9,2.1-2.1s-0.9-2.1-2.1-2.1c0,0,0,0,0,0
		C94.7,255.9,93.8,256.9,93.8,258.1z"/>
	<path class="st3" d="M94.8,258.1c-0.1,0.6,0.4,1.1,1,1.2c0.6,0.1,1.1-0.4,1.2-1c0-0.1,0-0.1,0-0.2c-0.1-0.6-0.6-1-1.2-1
		C95.2,257.1,94.8,257.6,94.8,258.1z"/>
	<rect x="100.4" y="256.9" class="st4" width="2.4" height="2.4"/>
	<path class="st3" d="M111.5,252.1H80.2c-0.9,0-1.6-0.7-1.6-1.6v-6.9c0-0.9,0.7-1.6,1.6-1.6h31.3c0.9,0,1.6,0.7,1.6,1.6v6.9
		C113.1,251.3,112.4,252.1,111.5,252.1z"/>
	<path class="st1" d="M111.5,252.1H80.2c-0.9,0-1.6-0.7-1.6-1.6v-6.9c0-0.9,0.7-1.6,1.6-1.6h31.3c0.9,0,1.6,0.7,1.6,1.6v6.9
		C113.1,251.3,112.4,252.1,111.5,252.1z"/>
	<path class="st3" d="M123.3,252.1H92c-0.9,0-1.6-0.7-1.6-1.6v-6.9c0-0.9,0.7-1.6,1.6-1.6h31.3c0.9,0,1.6,0.7,1.6,1.6v6.9
		C124.9,251.3,124.2,252.1,123.3,252.1z"/>
	<path class="st4" d="M93.8,247c0,1.2,0.9,2.1,2.1,2.1c1.2,0,2.1-0.9,2.1-2.1s-0.9-2.1-2.1-2.1c0,0,0,0,0,0
		C94.7,244.9,93.8,245.8,93.8,247C93.8,247,93.8,247,93.8,247z"/>
	<path class="st3" d="M94.8,247c-0.1,0.6,0.4,1.1,1,1.2c0.6,0.1,1.1-0.4,1.2-1c0-0.1,0-0.1,0-0.2c-0.1-0.6-0.6-1-1.2-1
		C95.2,246.1,94.8,246.5,94.8,247z"/>
	<rect x="100.4" y="245.8" class="st4" width="2.4" height="2.4"/>
	<path class="st3" d="M111.5,241H80.2c-0.9,0-1.6-0.7-1.6-1.6v-6.9c0-0.9,0.7-1.6,1.6-1.6h31.3c0.9,0,1.6,0.7,1.6,1.6v6.9
		C113.1,240.2,112.4,241,111.5,241z"/>
	<path class="st1" d="M111.5,241H80.2c-0.9,0-1.6-0.7-1.6-1.6v-6.9c0-0.9,0.7-1.6,1.6-1.6h31.3c0.9,0,1.6,0.7,1.6,1.6v6.9
		C113.1,240.2,112.4,241,111.5,241z"/>
	<path class="st3" d="M123.3,241H92c-0.9,0-1.6-0.7-1.6-1.6v-6.9c0-0.9,0.7-1.6,1.6-1.6h31.3c0.9,0,1.6,0.7,1.6,1.6v6.9
		C124.9,240.2,124.2,241,123.3,241z"/>
	<path class="st4" d="M93.8,235.9c0,1.2,1,2.1,2.1,2.1s2.1-1,2.1-2.1c0-1.2-1-2.1-2.1-2.1C94.7,233.8,93.8,234.7,93.8,235.9
		C93.8,235.9,93.8,235.9,93.8,235.9z"/>
	<path class="st3" d="M94.8,235.9c0,0.6,0.5,1.1,1.1,1.1s1.1-0.5,1.1-1.1c0-0.6-0.5-1.1-1.1-1.1l0,0
		C95.3,234.8,94.8,235.3,94.8,235.9C94.8,235.9,94.8,235.9,94.8,235.9z"/>
	<rect x="100.4" y="234.7" class="st4" width="2.4" height="2.4"/>
	<path class="st3" d="M111.4,229.9H80.1c-0.9,0-1.6-0.7-1.6-1.6v-6.9c0-0.9,0.7-1.6,1.6-1.6h31.3c0.9,0,1.6,0.7,1.6,1.6v6.9
		C113.1,229.2,112.3,229.9,111.4,229.9z"/>
	<path class="st1" d="M111.4,229.9H80.1c-0.9,0-1.6-0.7-1.6-1.6v-6.9c0-0.9,0.7-1.6,1.6-1.6h31.3c0.9,0,1.6,0.7,1.6,1.6v6.9
		C113.1,229.2,112.3,229.9,111.4,229.9z"/>
	<path class="st3" d="M123.2,229.9H91.9c-0.9,0-1.6-0.7-1.6-1.6v-6.9c0-0.9,0.7-1.6,1.6-1.6h31.3c0.9,0,1.6,0.7,1.6,1.6v6.9
		C124.8,229.2,124.1,229.9,123.2,229.9z"/>
	<circle class="st4" cx="95.8" cy="224.8" r="2.1"/>
	<path class="st3" d="M94.8,224.8c-0.1,0.6,0.4,1.1,1,1.2c0.6,0.1,1.1-0.4,1.2-1c0-0.1,0-0.1,0-0.2c-0.1-0.6-0.6-1-1.2-1
		C95.2,223.9,94.8,224.3,94.8,224.8z"/>
	<rect x="100.4" y="223.6" class="st4" width="2.4" height="2.4"/>
	<path class="st3" d="M111.3,218.8H80.1c-0.9,0-1.6-0.7-1.6-1.6v-6.9c0-0.9,0.7-1.6,1.6-1.6h31.3c0.9,0,1.6,0.7,1.6,1.6v6.9
		C113,218.1,112.2,218.8,111.3,218.8z"/>
	<path class="st1" d="M111.3,218.8H80.1c-0.9,0-1.6-0.7-1.6-1.6v-6.9c0-0.9,0.7-1.6,1.6-1.6h31.3c0.9,0,1.6,0.7,1.6,1.6v6.9
		C113,218.1,112.2,218.8,111.3,218.8z"/>
	<path class="st3" d="M123.1,218.8H91.9c-0.9,0-1.6-0.7-1.6-1.6v-6.9c0-0.9,0.7-1.6,1.6-1.6h31.3c0.9,0,1.6,0.7,1.6,1.6v6.9
		C124.8,218.1,124,218.8,123.1,218.8z"/>
	<path class="st4" d="M93.6,213.7c0,1.2,0.9,2.1,2.1,2.1c1.2,0,2.1-0.9,2.1-2.1s-0.9-2.1-2.1-2.1c0,0,0,0,0,0
		C94.6,211.6,93.6,212.6,93.6,213.7C93.6,213.7,93.6,213.7,93.6,213.7z"/>
	<path class="st3" d="M94.7,213.7c-0.1,0.6,0.4,1.1,1,1.2c0.6,0.1,1.1-0.4,1.2-1c0-0.1,0-0.1,0-0.2c-0.1-0.6-0.6-1-1.2-1
		C95.1,212.8,94.7,213.2,94.7,213.7z"/>
	<rect x="100.3" y="212.5" class="st4" width="2.4" height="2.4"/>
	<path class="st3" d="M111.3,207.7H80c-0.9,0-1.6-0.7-1.6-1.6v-6.9c0-0.9,0.7-1.6,1.6-1.6h31.3c0.9,0,1.6,0.7,1.6,1.6v6.9
		C112.9,207,112.2,207.7,111.3,207.7z"/>
	<path class="st1" d="M111.3,207.7H80c-0.9,0-1.6-0.7-1.6-1.6v-6.9c0-0.9,0.7-1.6,1.6-1.6h31.3c0.9,0,1.6,0.7,1.6,1.6v6.9
		C112.9,207,112.2,207.7,111.3,207.7z"/>
	<path class="st3" d="M123.1,207.7H91.8c-0.9,0-1.6-0.7-1.6-1.6v-6.9c0-0.9,0.7-1.6,1.6-1.6h31.3c0.9,0,1.6,0.7,1.6,1.6v6.9
		C124.7,207,124,207.7,123.1,207.7z"/>
	<path class="st4" d="M93.5,202.7c0,1.2,1,2.1,2.1,2.1s2.1-1,2.1-2.1c0-1.2-1-2.1-2.1-2.1C94.5,200.5,93.5,201.5,93.5,202.7
		C93.5,202.7,93.5,202.7,93.5,202.7z"/>
	<path class="st3" d="M94.6,202.7c0,0.6,0.5,1.1,1.1,1.1s1.1-0.5,1.1-1.1c0-0.6-0.5-1.1-1.1-1.1l0,0
		C95.1,201.6,94.6,202.1,94.6,202.7C94.6,202.7,94.6,202.7,94.6,202.7z"/>
	<rect x="100.2" y="201.5" class="st4" width="2.4" height="2.4"/>
	<path class="st3" d="M111.2,196.7H79.9c-0.9,0-1.6-0.7-1.6-1.6v-6.9c0-0.9,0.7-1.6,1.6-1.6h31.3c0.9,0,1.6,0.7,1.6,1.6v6.9
		C112.8,195.9,112.1,196.7,111.2,196.7z"/>
	<path class="st1" d="M111.2,196.7H79.9c-0.9,0-1.6-0.7-1.6-1.6v-6.9c0-0.9,0.7-1.6,1.6-1.6h31.3c0.9,0,1.6,0.7,1.6,1.6v6.9
		C112.8,195.9,112.1,196.7,111.2,196.7z"/>
	<path class="st3" d="M123,196.7H91.7c-0.9,0-1.6-0.7-1.6-1.6v-6.9c0-0.9,0.7-1.6,1.6-1.6H123c0.9,0,1.6,0.7,1.6,1.6v6.9
		C124.6,195.9,123.9,196.7,123,196.7z"/>
	<path class="st4" d="M93.5,191.6c0,1.2,0.9,2.1,2.1,2.1c1.2,0,2.1-0.9,2.1-2.1s-0.9-2.1-2.1-2.1c0,0,0,0,0,0
		C94.4,189.4,93.5,190.4,93.5,191.6z"/>
	<path class="st3" d="M94.5,191.6c0,0.6,0.5,1.1,1.1,1.1s1.1-0.5,1.1-1.1c0-0.6-0.5-1.1-1.1-1.1c0,0,0,0,0,0
		C95,190.5,94.5,191,94.5,191.6z"/>
	<rect x="100.2" y="190.4" class="st4" width="2.4" height="2.4"/>
	<path class="st3" d="M111.1,185.6H79.9c-0.9,0-1.6-0.7-1.6-1.6v-6.9c0-0.9,0.7-1.6,1.6-1.6h31.3c0.9,0,1.6,0.7,1.6,1.6v6.9
		C112.8,184.8,112,185.6,111.1,185.6z"/>
	<path class="st1" d="M111.1,185.6H79.9c-0.9,0-1.6-0.7-1.6-1.6v-6.9c0-0.9,0.7-1.6,1.6-1.6h31.3c0.9,0,1.6,0.7,1.6,1.6v6.9
		C112.8,184.8,112,185.6,111.1,185.6z"/>
	<path class="st3" d="M122.9,185.6H91.6c-0.9,0-1.6-0.7-1.6-1.6v-6.9c0-0.9,0.7-1.6,1.6-1.6h31.3c0.9,0,1.6,0.7,1.6,1.6v6.9
		C124.6,184.8,123.8,185.6,122.9,185.6z"/>
	<path class="st4" d="M93.4,180.5c0,1.2,0.9,2.1,2.1,2.1c1.2,0,2.1-0.9,2.1-2.1s-0.9-2.1-2.1-2.1c0,0,0,0,0,0
		C94.4,178.4,93.4,179.3,93.4,180.5C93.4,180.5,93.4,180.5,93.4,180.5z"/>
	<circle class="st3" cx="95.5" cy="180.5" r="1.1"/>
	<rect x="100.1" y="179.3" class="st4" width="2.4" height="2.4"/>
	<path class="st3" d="M111.1,174.5H79.8c-0.9,0-1.6-0.7-1.6-1.6V166c0-0.9,0.7-1.6,1.6-1.6h31.3c0.9,0,1.6,0.7,1.6,1.6v6.9
		C112.7,173.8,112,174.5,111.1,174.5z"/>
	<path class="st1" d="M111.1,174.5H79.8c-0.9,0-1.6-0.7-1.6-1.6V166c0-0.9,0.7-1.6,1.6-1.6h31.3c0.9,0,1.6,0.7,1.6,1.6v6.9
		C112.7,173.8,112,174.5,111.1,174.5z"/>
	<path class="st3" d="M122.8,174.5H91.6c-0.9,0-1.6-0.7-1.6-1.6V166c0-0.9,0.7-1.6,1.6-1.6h31.3c0.9,0,1.6,0.7,1.6,1.6v6.9
		C124.5,173.8,123.8,174.5,122.8,174.5z"/>
	<path class="st4" d="M93.3,169.4c0,1.2,0.9,2.1,2.1,2.1c1.2,0,2.1-0.9,2.1-2.1s-0.9-2.1-2.1-2.1c0,0,0,0,0,0
		C94.3,167.3,93.3,168.2,93.3,169.4C93.3,169.4,93.3,169.4,93.3,169.4z"/>
	<circle class="st3" cx="95.5" cy="169.4" r="1.1"/>
	<rect x="100" y="168.2" class="st4" width="2.4" height="2.4"/>
	<path class="st3" d="M111,163.4H79.7c-0.9,0-1.6-0.7-1.6-1.6v-6.9c0-0.9,0.7-1.6,1.6-1.6H111c0.9,0,1.6,0.7,1.6,1.6v6.9
		C112.6,162.7,111.9,163.4,111,163.4z"/>
	<path class="st1" d="M111,163.4H79.7c-0.9,0-1.6-0.7-1.6-1.6v-6.9c0-0.9,0.7-1.6,1.6-1.6H111c0.9,0,1.6,0.7,1.6,1.6v6.9
		C112.6,162.7,111.9,163.4,111,163.4z"/>
	<path class="st3" d="M122.8,163.4H91.5c-0.9,0-1.6-0.7-1.6-1.6v-6.9c0-0.9,0.7-1.6,1.6-1.6h31.3c0.9,0,1.6,0.7,1.6,1.6v6.9
		C124.4,162.7,123.7,163.4,122.8,163.4z"/>
	<path class="st4" d="M93.3,158.3c0,1.2,1,2.1,2.1,2.1s2.1-1,2.1-2.1c0-1.2-1-2.1-2.1-2.1S93.3,157.2,93.3,158.3L93.3,158.3z"/>
	<path class="st3" d="M94.3,158.3c0,0.6,0.5,1.1,1.1,1.1s1.1-0.5,1.1-1.1c0-0.6-0.5-1.1-1.1-1.1l0,0
		C94.8,157.2,94.3,157.7,94.3,158.3z"/>
	<rect x="100" y="157.1" class="st4" width="2.4" height="2.4"/>
	<path class="st3" d="M110.9,152.3H79.7c-0.9,0-1.6-0.7-1.6-1.6v-6.9c0-0.9,0.7-1.6,1.6-1.6h31.3c0.9,0,1.6,0.7,1.6,1.6v6.9
		C112.6,151.6,111.8,152.3,110.9,152.3z"/>
	<path class="st1" d="M110.9,152.3H79.7c-0.9,0-1.6-0.7-1.6-1.6v-6.9c0-0.9,0.7-1.6,1.6-1.6h31.3c0.9,0,1.6,0.7,1.6,1.6v6.9
		C112.6,151.6,111.8,152.3,110.9,152.3z"/>
	<path class="st3" d="M122.7,152.3H91.4c-0.9,0-1.6-0.7-1.6-1.6v-6.9c0-0.9,0.7-1.6,1.6-1.6h31.3c0.9,0,1.6,0.7,1.6,1.6v6.9
		C124.4,151.6,123.6,152.3,122.7,152.3z"/>
	<path class="st4" d="M93.2,147.2c0,1.2,0.9,2.1,2.1,2.1c1.2,0,2.1-0.9,2.1-2.1c0-1.2-0.9-2.1-2.1-2.1c0,0,0,0,0,0
		C94.2,145.1,93.2,146.1,93.2,147.2z"/>
	<path class="st3" d="M94.2,147.2c-0.1,0.6,0.4,1.1,1,1.2c0.6,0.1,1.1-0.4,1.2-1c0-0.1,0-0.1,0-0.2c-0.1-0.6-0.6-1-1.2-1
		C94.7,146.3,94.3,146.7,94.2,147.2z"/>
	<rect x="99.9" y="146" class="st4" width="2.4" height="2.4"/>
	<path class="st3" d="M110.9,141.2H79.6c-0.9,0-1.6-0.7-1.6-1.6v-6.9c0-0.9,0.7-1.6,1.6-1.6h31.3c0.9,0,1.6,0.7,1.6,1.6v6.9
		C112.5,140.5,111.8,141.2,110.9,141.2z"/>
	<path class="st1" d="M110.9,141.2H79.6c-0.9,0-1.6-0.7-1.6-1.6v-6.9c0-0.9,0.7-1.6,1.6-1.6h31.3c0.9,0,1.6,0.7,1.6,1.6v6.9
		C112.5,140.5,111.8,141.2,110.9,141.2z"/>
	<path class="st3" d="M122.6,141.2H91.4c-0.9,0-1.6-0.7-1.6-1.6v-6.9c0-0.9,0.7-1.6,1.6-1.6h31.3c0.9,0,1.6,0.7,1.6,1.6v6.9
		C124.3,140.5,123.5,141.2,122.6,141.2z"/>
	<path class="st4" d="M93.1,136.2c0,1.2,1,2.1,2.1,2.1c1.2,0,2.1-1,2.1-2.1c0-1.2-1-2.1-2.1-2.1S93.1,135,93.1,136.2
		C93.1,136.2,93.1,136.2,93.1,136.2z"/>
	<path class="st3" d="M94.2,136.2c0,0.6,0.5,1.1,1.1,1.1c0.6,0,1.1-0.5,1.1-1.1c0-0.6-0.5-1.1-1.1-1.1l0,0
		C94.7,135.1,94.2,135.6,94.2,136.2C94.2,136.2,94.2,136.2,94.2,136.2z"/>
	<rect x="99.8" y="134.9" class="st4" width="2.4" height="2.4"/>
	<path class="st3" d="M110.8,130.2H79.5c-0.9,0-1.6-0.7-1.6-1.6v-6.9c0-0.9,0.7-1.6,1.6-1.6h31.3c0.9,0,1.6,0.7,1.6,1.6v6.9
		C112.4,129.4,111.7,130.2,110.8,130.2z"/>
	<path class="st1" d="M110.8,130.2H79.5c-0.9,0-1.6-0.7-1.6-1.6v-6.9c0-0.9,0.7-1.6,1.6-1.6h31.3c0.9,0,1.6,0.7,1.6,1.6v6.9
		C112.4,129.4,111.7,130.2,110.8,130.2z"/>
	<path class="st3" d="M122.6,130.2H91.3c-0.9,0-1.6-0.7-1.6-1.6v-6.9c0-0.9,0.7-1.6,1.6-1.6h31.3c0.9,0,1.6,0.7,1.6,1.6v6.9
		C124.2,129.4,123.5,130.2,122.6,130.2z"/>
	<circle class="st4" cx="95.2" cy="125.1" r="2.1"/>
	<path class="st3" d="M94.1,125.1c0,0.6,0.5,1.1,1.1,1.1c0.6,0,1.1-0.5,1.1-1.1c0-0.6-0.5-1.1-1.1-1.1l0,0
		C94.6,124,94.1,124.5,94.1,125.1C94.1,125.1,94.1,125.1,94.1,125.1z"/>
	<rect x="99.7" y="123.9" class="st4" width="2.4" height="2.4"/>
	<path class="st3" d="M110.7,119.1H79.4c-0.9,0-1.6-0.7-1.6-1.6v-6.9c0-0.9,0.7-1.6,1.6-1.6h31.3c0.9,0,1.6,0.7,1.6,1.6v6.9
		C112.4,118.3,111.6,119.1,110.7,119.1z"/>
	<path class="st1" d="M110.7,119.1H79.4c-0.9,0-1.6-0.7-1.6-1.6v-6.9c0-0.9,0.7-1.6,1.6-1.6h31.3c0.9,0,1.6,0.7,1.6,1.6v6.9
		C112.4,118.3,111.6,119.1,110.7,119.1z"/>
	<path class="st3" d="M122.5,119.1H91.2c-0.9,0-1.6-0.7-1.6-1.6v-6.9c0-0.9,0.7-1.6,1.6-1.6h31.3c0.9,0,1.6,0.7,1.6,1.6v6.9
		C124.1,118.3,123.4,119.1,122.5,119.1z"/>
	<circle class="st4" cx="95.1" cy="114" r="2.1"/>
	<circle class="st3" cx="95.1" cy="114" r="1.1"/>
	<rect x="99.7" y="112.8" class="st4" width="2.4" height="2.4"/>
	<path class="st3" d="M110.6,108H79.4c-0.9,0-1.6-0.7-1.6-1.6v-6.9c0-0.9,0.7-1.6,1.6-1.6h31.3c0.9,0,1.6,0.7,1.6,1.6v6.9
		C112.3,107.3,111.6,108,110.6,108z"/>
	<path class="st1" d="M110.6,108H79.4c-0.9,0-1.6-0.7-1.6-1.6v-6.9c0-0.9,0.7-1.6,1.6-1.6h31.3c0.9,0,1.6,0.7,1.6,1.6v6.9
		C112.3,107.3,111.6,108,110.6,108z"/>
	<path class="st3" d="M122.4,108H91.2c-0.9,0-1.6-0.7-1.6-1.6v-6.9c0-0.9,0.7-1.6,1.6-1.6h31.3c0.9,0,1.6,0.7,1.6,1.6v6.9
		C124.1,107.3,123.3,108,122.4,108z"/>
	<path class="st4" d="M92.9,102.9c0,1.2,1,2.1,2.1,2.1c1.2,0,2.1-1,2.1-2.1c0-1.2-1-2.1-2.1-2.1S92.9,101.7,92.9,102.9
		C92.9,102.9,92.9,102.9,92.9,102.9z"/>
	<path class="st3" d="M94,102.9c0,0.6,0.5,1.1,1.1,1.1c0.6,0,1.1-0.5,1.1-1.1c0-0.6-0.5-1.1-1.1-1.1l0,0
		C94.5,101.8,94,102.3,94,102.9C94,102.9,94,102.9,94,102.9z"/>
	<rect x="99.6" y="101.7" class="st4" width="2.4" height="2.4"/>
	<path class="st3" d="M110.6,96.9H79.3c-0.9,0-1.6-0.7-1.6-1.6v-6.9c0-0.9,0.7-1.6,1.6-1.6h31.3c0.9,0,1.7,0.7,1.7,1.6v6.9
		C112.2,96.2,111.5,96.9,110.6,96.9z"/>
	<path class="st1" d="M110.6,96.9H79.3c-0.9,0-1.6-0.7-1.6-1.6v-6.9c0-0.9,0.7-1.6,1.6-1.6h31.3c0.9,0,1.7,0.7,1.7,1.6v6.9
		C112.2,96.2,111.5,96.9,110.6,96.9z"/>
	<path class="st3" d="M122.4,96.9H91.1c-0.9,0-1.6-0.7-1.6-1.6v-6.9c0-0.9,0.7-1.6,1.6-1.6h31.3c0.9,0,1.6,0.7,1.6,1.6v6.9
		C124,96.2,123.3,96.9,122.4,96.9z"/>
	<path class="st4" d="M92.8,91.8c0,1.2,1,2.1,2.1,2.1c1.2,0,2.1-1,2.1-2.1c0-1.2-1-2.1-2.1-2.1C93.8,89.7,92.8,90.7,92.8,91.8
		C92.8,91.8,92.8,91.8,92.8,91.8z"/>
	<path class="st3" d="M93.9,91.8c0,0.6,0.5,1.1,1.1,1.1c0.6,0,1.1-0.5,1.1-1.1c0-0.6-0.5-1.1-1.1-1.1l0,0
		C94.4,90.7,93.9,91.2,93.9,91.8C93.9,91.8,93.9,91.8,93.9,91.8z"/>
	<rect x="99.5" y="90.6" class="st4" width="2.4" height="2.4"/>
	<path class="st2" d="M6.8,247.8h37.7c1.3,0,2.4,1.1,2.4,2.4v27.7c0,1.3-1.1,2.4-2.4,2.4H6.8c-1.3,0-2.4-1.1-2.4-2.4v-27.7
		C4.4,248.9,5.5,247.8,6.8,247.8z"/>
	<path class="st3" d="M23.2,247.8h37.7c1.3,0,2.4,1.1,2.4,2.4v27.7c0,1.3-1.1,2.4-2.4,2.4H23.2c-1.3,0-2.4-1.1-2.4-2.4v-27.7
		C20.8,248.9,21.9,247.8,23.2,247.8z"/>
	<path class="st2" d="M45,274.2h-5.8c-0.2,0-0.4-0.2-0.4-0.4l0,0c0-0.2,0.2-0.4,0.4-0.4h0H45c0.2,0,0.4,0.2,0.4,0.4l0,0
		C45.4,274,45.2,274.2,45,274.2L45,274.2z"/>
	<path class="st2" d="M48.8,272H35.3c-0.2,0-0.4-0.2-0.4-0.4c0-0.2,0.2-0.4,0.4-0.4h0h13.6c0.2,0,0.4,0.2,0.4,0.4l0,0
		C49.2,271.9,49.1,272,48.8,272z"/>
	<path class="st2" d="M50.7,269.9H33.4c-0.2,0-0.4-0.1-0.5-0.3c0-0.2,0.1-0.4,0.3-0.5c0,0,0.1,0,0.1,0h17.3c0.2,0,0.4,0.2,0.3,0.5
		C51,269.7,50.9,269.8,50.7,269.9z"/>
	<path class="st2" d="M51.8,267.7H32.4c-0.2,0-0.4-0.2-0.4-0.4c0-0.2,0.2-0.4,0.4-0.4h0h19.4c0.2,0,0.4,0.2,0.4,0.4c0,0,0,0,0,0
		C52.2,267.5,52,267.7,51.8,267.7z"/>
	<path class="st2" d="M52.2,265.5H31.9c-0.2,0-0.4-0.1-0.5-0.3c0-0.2,0.1-0.4,0.3-0.5c0,0,0.1,0,0.1,0h20.3c0.2,0,0.4,0.1,0.5,0.3
		c0,0.2-0.1,0.4-0.3,0.5C52.3,265.5,52.2,265.5,52.2,265.5z"/>
	<path class="st2" d="M52.2,263.4H31.9c-0.2,0-0.4-0.2-0.4-0.4l0,0c0-0.2,0.2-0.4,0.4-0.4h0h20.3c0.2,0,0.4,0.2,0.4,0.4l0,0
		C52.6,263.2,52.4,263.4,52.2,263.4C52.2,263.4,52.2,263.4,52.2,263.4z"/>
	<path class="st2" d="M51.8,261.2H32.4c-0.2,0-0.4-0.1-0.5-0.3c0-0.2,0.1-0.4,0.3-0.5c0,0,0.1,0,0.1,0h19.4c0.2,0,0.4,0.2,0.3,0.5
		C52.1,261,51.9,261.2,51.8,261.2z"/>
	<path class="st2" d="M50.7,259H33.4c-0.2,0-0.4-0.2-0.4-0.4c0-0.2,0.2-0.4,0.4-0.4h0h17.3c0.2,0,0.4,0.2,0.4,0.4c0,0,0,0,0,0
		C51.1,258.8,50.9,259,50.7,259z"/>
	<path class="st2" d="M48.8,256.8H35.3c-0.2,0-0.4-0.1-0.5-0.3c0-0.2,0.1-0.4,0.3-0.5c0,0,0.1,0,0.1,0h13.6c0.2,0,0.4,0.1,0.5,0.3
		c0,0.2-0.1,0.4-0.3,0.5C48.9,256.9,48.9,256.9,48.8,256.8z"/>
	<path class="st2" d="M45,254.7h-5.8c-0.2,0-0.4-0.2-0.4-0.4l0,0c0-0.2,0.2-0.4,0.4-0.4h0H45c0.2,0,0.4,0.2,0.4,0.4l0,0
		C45.4,254.5,45.2,254.7,45,254.7L45,254.7z"/>
	<path class="st2" d="M388.5,280.3h-37.7c-1.3,0-2.4-1.1-2.4-2.4v-27.7c0-1.3,1.1-2.4,2.4-2.4h37.7c1.3,0,2.4,1.1,2.4,2.4v27.7
		C390.9,279.2,389.8,280.3,388.5,280.3z"/>
	<path class="st3" d="M372.2,280.3h-37.7c-1.3,0-2.4-1.1-2.4-2.4v-27.7c0-1.3,1.1-2.4,2.4-2.4h37.7c1.3,0,2.4,1.1,2.4,2.4v27.7
		C374.6,279.2,373.5,280.3,372.2,280.3z"/>
	<path class="st2" d="M350.4,274.2h5.8c0.2,0,0.4-0.2,0.4-0.4l0,0c0-0.2-0.2-0.4-0.4-0.4l0,0h-5.8c-0.2,0-0.4,0.2-0.4,0.4
		C350,274,350.2,274.2,350.4,274.2C350.4,274.2,350.4,274.2,350.4,274.2z"/>
	<path class="st2" d="M346.5,272h13.6c0.2,0,0.4-0.2,0.4-0.4c0-0.2-0.2-0.4-0.4-0.4c0,0,0,0,0,0h-13.6c-0.2,0-0.4,0.2-0.4,0.4l0,0
		C346.1,271.9,346.3,272,346.5,272L346.5,272z"/>
	<path class="st2" d="M344.7,269.9h17.3c0.2,0,0.4-0.1,0.5-0.3s-0.1-0.4-0.3-0.5c0,0-0.1,0-0.1,0h-17.3c-0.2,0-0.4,0.1-0.5,0.3
		s0.1,0.4,0.3,0.5C344.6,269.9,344.6,269.9,344.7,269.9z"/>
	<path class="st2" d="M343.7,267.7H363c0.2,0,0.4-0.2,0.4-0.4l0,0c0-0.2-0.2-0.4-0.4-0.4l0,0h-19.3c-0.2,0-0.4,0.2-0.4,0.4l0,0
		C343.3,267.5,343.4,267.7,343.7,267.7z"/>
	<path class="st2" d="M343.2,265.5h20.3c0.2,0,0.4-0.1,0.5-0.3s-0.1-0.4-0.3-0.5c0,0-0.1,0-0.1,0h-20.3c-0.2,0-0.4,0.1-0.5,0.3
		s0.1,0.4,0.3,0.5C343.1,265.5,343.1,265.5,343.2,265.5z"/>
	<path class="st2" d="M343.2,263.4h20.3c0.2,0,0.4-0.2,0.4-0.4c0-0.2-0.2-0.4-0.4-0.4l0,0h-20.3c-0.2,0-0.4,0.2-0.4,0.4l0,0
		C342.8,263.2,343,263.4,343.2,263.4L343.2,263.4z"/>
	<path class="st2" d="M343.7,261.2H363c0.2,0,0.4-0.1,0.5-0.3s-0.1-0.4-0.3-0.5c0,0-0.1,0-0.1,0h-19.3c-0.2,0-0.4,0.1-0.5,0.3
		s0.1,0.4,0.3,0.5C343.6,261.2,343.6,261.2,343.7,261.2z"/>
	<path class="st2" d="M344.7,259h17.3c0.2,0,0.4-0.2,0.4-0.4c0-0.2-0.2-0.4-0.4-0.4l0,0h-17.3c-0.2,0-0.4,0.2-0.4,0.4l0,0
		C344.3,258.8,344.5,259,344.7,259z"/>
	<path class="st2" d="M346.5,256.8h13.6c0.2,0,0.4-0.2,0.3-0.5c0-0.2-0.2-0.3-0.3-0.3h-13.6c-0.2,0-0.4,0.1-0.5,0.3s0.1,0.4,0.3,0.5
		C346.4,256.9,346.5,256.9,346.5,256.8z"/>
	<path class="st2" d="M350.4,254.7h5.8c0.2,0,0.4-0.2,0.4-0.4l0,0c0-0.2-0.2-0.4-0.4-0.4l0,0h-5.8c-0.2,0-0.4,0.2-0.4,0.4
		c0,0,0,0,0,0C350,254.5,350.2,254.7,350.4,254.7z"/>
</g>
<g id="freepik--Shadow--inject-2">
	<ellipse id="freepik--path--inject-2" class="st5" cx="199.8" cy="314.4" rx="193.9" ry="11.3"/>
</g>
<g id="freepik--Plant--inject-2">
	<path class="st6" d="M29.1,246.4c0,0,6.4-5.3,11.8,0s6.5,38.1,6.5,38.1"/>
	<path class="st6" d="M47.8,290.8c0,0-3.7-38.5,10.3-54.6"/>
	<path class="st6" d="M46.5,286.7c0,0,2.9-43.8-7.7-53.5"/>
	<path class="st6" d="M47.8,286.7c0,0,0.2-29,8.1-33.4c7.9-4.5,11.8,10.2,11.8,10.2"/>
	<path class="st6" d="M44.8,286.7c0,0,1.3-22.2-4.8-30.2c-6.1-7.9-12.5,3.4-12.5,3.4"/>
	<path class="st6" d="M46.9,289.7c0,0-3.9-52,2.6-60.8"/>
	<path class="st7" d="M62.7,257.5c0,0-3.9,1.5-2.8,4.9s13.5,9,13.5,9s5.2-4.8,0.4-12.5C69.1,251.1,62.8,255.1,62.7,257.5z"/>
	<path class="st8" d="M62.7,257.5c0,0-3.9,1.5-2.8,4.9s13.5,9,13.5,9s5.2-4.8,0.4-12.5C69.1,251.1,62.8,255.1,62.7,257.5z"/>
	<path class="st7" d="M45.6,251c0,0,4.2-0.2,4.4,3.4c0.2,3.6-9,13.5-9,13.5s-6.6-2.4-5.2-11.4C37.3,247.6,44.6,248.8,45.6,251z"/>
	<path class="st8" d="M45.6,251c0,0,4.2-0.2,4.4,3.4c0.2,3.6-9,13.5-9,13.5s-6.6-2.4-5.2-11.4C37.3,247.6,44.6,248.8,45.6,251z"/>
	<path class="st7" d="M42.1,233.8c0,0,2.8-0.3,2.6-2s-10.8-6-17,1c0,0,4,6.9,9.8,7S42.1,233.8,42.1,233.8z"/>
	<path class="st8" d="M42.1,233.8c0,0,2.8-0.3,2.6-2s-10.8-6-17,1c0,0,4,6.9,9.8,7S42.1,233.8,42.1,233.8z"/>
	<path class="st7" d="M47.3,229.7c0,0-2.5,1.2-3.2-0.3s6-10.9,15-8.2c0,0,0.2,7.9-4.6,11.1S47.3,229.7,47.3,229.7z"/>
	<path class="st8" d="M47.3,229.7c0,0-2.5,1.2-3.2-0.3s6-10.9,15-8.2c0,0,0.2,7.9-4.6,11.1S47.3,229.7,47.3,229.7z"/>
	<path class="st7" d="M34.1,256.1c0,0,1.9-1.6-0.2-2.3s-12.2-0.5-12.3,9.5c0,0,11.8,2,13.3-1.9S34.1,256.1,34.1,256.1z"/>
	<path class="st8" d="M34.1,256.1c0,0,1.9-1.6-0.2-2.3s-12.2-0.5-12.3,9.5c0,0,11.8,2,13.3-1.9S34.1,256.1,34.1,256.1z"/>
	<path class="st7" d="M58.2,233.6c0,0-1.9-1.5,0.2-2.3s12.2-0.5,12.3,9.5c0,0-11.8,2-13.3-1.9S58.2,233.6,58.2,233.6z"/>
	<path class="st8" d="M58.2,233.6c0,0-1.9-1.5,0.2-2.3s12.2-0.5,12.3,9.5c0,0-11.8,2-13.3-1.9S58.2,233.6,58.2,233.6z"/>
	<path class="st7" d="M52,241.7c0,0-0.2-1.9,1.3-1.1s6.8,6.5,1.3,11.9c0,0-7.4-5.5-6.1-8.3S52,241.7,52,241.7z"/>
	<path class="st8" d="M52,241.7c0,0-0.2-1.9,1.3-1.1s6.8,6.5,1.3,11.9c0,0-7.4-5.5-6.1-8.3S52,241.7,52,241.7z"/>
	<path class="st7" d="M32.4,244.3c0,0,1.2-1.5-0.5-1.7c-1.7-0.2-9.2,1.8-7.4,9.3c0,0,9.2-0.7,9.6-3.8S32.4,244.3,32.4,244.3z"/>
	<path class="st8" d="M32.4,244.3c0,0,1.2-1.5-0.5-1.7c-1.7-0.2-9.2,1.8-7.4,9.3c0,0,9.2-0.7,9.6-3.8S32.4,244.3,32.4,244.3z"/>
	<polygon class="st7" points="63.4,314.6 31.9,314.6 28.5,280.2 66.8,280.2 	"/>
	<polygon class="st9" points="63.4,314.6 31.9,314.6 28.5,280.2 66.8,280.2 	"/>
	<rect x="26.9" y="276.4" class="st7" width="41.6" height="7.6"/>
	<rect x="26.9" y="276.4" class="st8" width="41.6" height="7.6"/>
</g>
<g id="freepik--trash-bin--inject-2">
	<path class="st7" d="M359.4,296.1c0.5-1.1,0.1-2.4-1-3c-0.2-0.1-0.5-0.2-0.7-0.2c0.6-1.9,0-3.9-1.5-5.2c-0.2-0.2-0.4-0.3-0.7-0.3
		c-0.3,0-0.5,0.1-0.7,0.3l-4.2,3c-0.3,0.2-0.6,0.5-0.8,0.8c-0.9,1.6,2.2,3.8,1,5.1c-0.4,0.4-0.9,0.5-1.4,0.8c-1,0.6-1.1,2-1.6,3
		s-2.1,1.9-2.7,0.9c0.5-1-0.9-1.9-2-2s-2.3-0.2-2.9-1.2c-1.6,1.4-5.1-2.5-5-4c-1.3,0.2-2.3,1.3-2.5,2.5c-0.2,1.3-0.2,2.6-0.1,3.9
		c0,2.5-0.9,5-0.8,7.5c0,2,0.8,4.1,2.6,4.9c0.9,0.3,1.8,0.5,2.8,0.4l20.5-0.1c0.5,0,1,0,1.4-0.2c0.9-0.5,1.1-1.7,1.2-2.7
		c0.4-4.4,0.7-8.9,1.1-13.3L359.4,296.1z"/>
	<path class="st10" d="M359.4,296.1c0.5-1.1,0.1-2.4-1-3c-0.2-0.1-0.5-0.2-0.7-0.2c0.6-1.9,0-3.9-1.5-5.2c-0.2-0.2-0.4-0.3-0.7-0.3
		c-0.3,0-0.5,0.1-0.7,0.3l-4.2,3c-0.3,0.2-0.6,0.5-0.8,0.8c-0.9,1.6,2.2,3.8,1,5.1c-0.4,0.4-0.9,0.5-1.4,0.8c-1,0.6-1.1,2-1.6,3
		s-2.1,1.9-2.7,0.9c0.5-1-0.9-1.9-2-2s-2.3-0.2-2.9-1.2c-1.6,1.4-5.1-2.5-5-4c-1.3,0.2-2.3,1.3-2.5,2.5c-0.2,1.3-0.2,2.6-0.1,3.9
		c0,2.5-0.9,5-0.8,7.5c0,2,0.8,4.1,2.6,4.9c0.9,0.3,1.8,0.5,2.8,0.4l20.5-0.1c0.5,0,1,0,1.4-0.2c0.9-0.5,1.1-1.7,1.2-2.7
		c0.4-4.4,0.7-8.9,1.1-13.3L359.4,296.1z"/>
	<path class="st7" d="M360.6,274.5h-31.7l0.3,3.2l0.2,2.3l0.5,6l0.3,3.4l0.4,4.5l0.2,2l0,0.6l0.2,2.3l0.3,3.1l0.2,2l0.2,2l0.2,2.3
		l0.1,1.7l0.1,2l0.1,0.9h29.1l0.1-0.9l0.1-2l0.1-1.8l0.2-2.3l0.2-2l0.1-2l0.3-3.1l0.2-2.3v-0.6l0.1-2l0.4-4.5l0.3-3.4l0.5-6l0.2-2.3
		l0.3-3.2L360.6,274.5z M362.5,276.6L362.5,276.6l-0.6-0.6h0.7L362.5,276.6z M362.4,278.6l-0.1,0.8l-2.8,2.9l-3.3-3.3l2.9-2.9h0.7
		L362.4,278.6z M361.6,288.7l-2.1,2.1l-3.3-3.3l3.3-3.3l2.3,2.3L361.6,288.7z M331.3,286.5L331.3,286.5l2.3-2.3l3.3,3.3l-3.3,3.3
		l-2.1-2.1L331.3,286.5z M358.4,283.2l-3.3,3.3l-3.3-3.3l3.3-3.3L358.4,283.2z M353.3,276h3.7l-1.9,1.9L353.3,276z M354.1,287.5
		l-3.3,3.3l-3.3-3.3l3.3-3.3L354.1,287.5z M343.3,291.8l3.3-3.3l3.3,3.3l-3.3,3.3L343.3,291.8z M345.5,296.1l-3.3,3.3l-3.3-3.2
		l3.3-3.3L345.5,296.1z M350.9,292.9l3.3,3.3l-3.3,3.3l-3.3-3.2L350.9,292.9z M346.5,286.5l-3.3-3.3l3.3-3.3l3.2,3.3L346.5,286.5z
		 M345.5,287.5l-3.3,3.3l-3.3-3.3l3.3-3.3L345.5,287.5z M337.9,286.5l-3.3-3.3l3.3-3.3l3.3,3.3L337.9,286.5z M337.9,288.6l3.3,3.3
		l-3.3,3.3l-3.3-3.3L337.9,288.6z M341.2,300.4l-3.3,3.3l-3.3-3.3l3.3-3.3L341.2,300.4z M342.2,301.5l3.3,3.3l-3.3,3.3l-3.3-3.3
		L342.2,301.5z M343.3,300.4l3.3-3.3l3.3,3.3l-3.3,3.3L343.3,300.4z M350.9,301.5l3.3,3.3l-3.3,3.3l-3.3-3.3L350.9,301.5z
		 M355.2,305.8l3.3,3.3l-2.1,2.1H354l-2.1-2.1L355.2,305.8z M351.9,300.4l3.3-3.3l3.3,3.3l-3.3,3.3L351.9,300.4z M351.9,291.8
		l3.3-3.3l3.3,3.3l-3.3,3.3L351.9,291.8z M354.1,278.9l-3.3,3.3l-3.3-3.3l2.9-2.9h0.7L354.1,278.9z M346.5,277.8l-1.9-1.9h3.7
		L346.5,277.8z M345.5,278.9l-3.3,3.3l-3.3-3.3l2.9-2.9h0.7L345.5,278.9z M339.8,276l-1.9,1.9L336,276H339.8z M333.9,276l2.9,2.9
		l-3.2,3.3l-2.9-2.9l-0.1-0.8l2.5-2.6L333.9,276z M331.1,276l-0.6,0.6l0,0l-0.1-0.6H331.1z M330.9,281.6l1.6,1.6l-1.4,1.4
		L330.9,281.6z M331.8,292.6l-0.1-1.5l0,0l0.8,0.8L331.8,292.6z M332,294.6l1.6-1.6l3.3,3.3l-3.3,3.3l-1.3-1.3L332,294.6z
		 M332.5,300.6v-0.1V300.6L332.5,300.6L332.5,300.6z M333,307.6l-0.4-5l1-1l3.3,3.3l-3.3,3.3L333,307.6L333,307.6z M333.3,311.3
		l-0.1-0.8l0.3-0.3l1.1,1.1H333.3z M334.6,309.2l3.3-3.3l3.3,3.3l-2.1,2h-2.3L334.6,309.2z M341.2,311.3l1.1-1.1l1,1.1H341.2z
		 M345.4,311.3l-2.1-2.1l3.3-3.3l3.2,3.2l-2.1,2.1L345.4,311.3z M349.8,311.3l1.1-1.1l1.1,1.1L349.8,311.3z M359.7,311.3h-1.3
		l1.1-1.1l0.3,0.3L359.7,311.3z M360,307.6l-0.6,0.5l-3.3-3.3l3.3-3.3l1,1L360,307.6z M360.6,300.5v0.1V300.5L360.6,300.5
		L360.6,300.5z M360.8,298.2l-1.3,1.3l-3.2-3.3l3.3-3.3l1.6,1.6L360.8,298.2z M361.2,292.6l-0.7-0.7l0.8-0.8L361.2,292.6z
		 M362.1,281.7l-0.2,3l-1.3-1.5L362.1,281.7L362.1,281.7z"/>
	<g class="st11">
		<path class="st12" d="M360.6,274.5h-31.7l0.3,3.2l0.2,2.3l0.5,6l0.3,3.4l0.4,4.5l0.2,2l0,0.6l0.2,2.3l0.3,3.1l0.2,2l0.2,2l0.2,2.3
			l0.1,1.7l0.1,2l0.1,0.9h29.1l0.1-0.9l0.1-2l0.1-1.8l0.2-2.3l0.2-2l0.1-2l0.3-3.1l0.2-2.3v-0.6l0.1-2l0.4-4.5l0.3-3.4l0.5-6
			l0.2-2.3l0.3-3.2L360.6,274.5z M362.5,276.6L362.5,276.6l-0.6-0.6h0.7L362.5,276.6z M362.4,278.6l-0.1,0.8l-2.8,2.9l-3.3-3.3
			l2.9-2.9h0.7L362.4,278.6z M361.6,288.7l-2.1,2.1l-3.3-3.3l3.3-3.3l2.3,2.3L361.6,288.7z M331.3,286.5L331.3,286.5l2.3-2.3
			l3.3,3.3l-3.3,3.3l-2.1-2.1L331.3,286.5z M358.4,283.2l-3.3,3.3l-3.3-3.3l3.3-3.3L358.4,283.2z M353.3,276h3.7l-1.9,1.9L353.3,276
			z M354.1,287.5l-3.3,3.3l-3.3-3.3l3.3-3.3L354.1,287.5z M343.3,291.8l3.3-3.3l3.3,3.3l-3.3,3.3L343.3,291.8z M345.5,296.1
			l-3.3,3.3l-3.3-3.2l3.3-3.3L345.5,296.1z M350.9,292.9l3.3,3.3l-3.3,3.3l-3.3-3.2L350.9,292.9z M346.5,286.5l-3.3-3.3l3.3-3.3
			l3.2,3.3L346.5,286.5z M345.5,287.5l-3.3,3.3l-3.3-3.3l3.3-3.3L345.5,287.5z M337.9,286.5l-3.3-3.3l3.3-3.3l3.3,3.3L337.9,286.5z
			 M337.9,288.6l3.3,3.3l-3.3,3.3l-3.3-3.3L337.9,288.6z M341.2,300.4l-3.3,3.3l-3.3-3.3l3.3-3.3L341.2,300.4z M342.2,301.5l3.3,3.3
			l-3.3,3.3l-3.3-3.3L342.2,301.5z M343.3,300.4l3.3-3.3l3.3,3.3l-3.3,3.3L343.3,300.4z M350.9,301.5l3.3,3.3l-3.3,3.3l-3.3-3.3
			L350.9,301.5z M355.2,305.8l3.3,3.3l-2.1,2.1H354l-2.1-2.1L355.2,305.8z M351.9,300.4l3.3-3.3l3.3,3.3l-3.3,3.3L351.9,300.4z
			 M351.9,291.8l3.3-3.3l3.3,3.3l-3.3,3.3L351.9,291.8z M354.1,278.9l-3.3,3.3l-3.3-3.3l2.9-2.9h0.7L354.1,278.9z M346.5,277.8
			l-1.9-1.9h3.7L346.5,277.8z M345.5,278.9l-3.3,3.3l-3.3-3.3l2.9-2.9h0.7L345.5,278.9z M339.8,276l-1.9,1.9L336,276H339.8z
			 M333.9,276l2.9,2.9l-3.2,3.3l-2.9-2.9l-0.1-0.8l2.5-2.6L333.9,276z M331.1,276l-0.6,0.6l0,0l-0.1-0.6H331.1z M330.9,281.6
			l1.6,1.6l-1.4,1.4L330.9,281.6z M331.8,292.6l-0.1-1.5l0,0l0.8,0.8L331.8,292.6z M332,294.6l1.6-1.6l3.3,3.3l-3.3,3.3l-1.3-1.3
			L332,294.6z M332.5,300.6v-0.1V300.6L332.5,300.6L332.5,300.6z M333,307.6l-0.4-5l1-1l3.3,3.3l-3.3,3.3L333,307.6L333,307.6z
			 M333.3,311.3l-0.1-0.8l0.3-0.3l1.1,1.1H333.3z M334.6,309.2l3.3-3.3l3.3,3.3l-2.1,2h-2.3L334.6,309.2z M341.2,311.3l1.1-1.1
			l1,1.1H341.2z M345.4,311.3l-2.1-2.1l3.3-3.3l3.2,3.2l-2.1,2.1L345.4,311.3z M349.8,311.3l1.1-1.1l1.1,1.1L349.8,311.3z
			 M359.7,311.3h-1.3l1.1-1.1l0.3,0.3L359.7,311.3z M360,307.6l-0.6,0.5l-3.3-3.3l3.3-3.3l1,1L360,307.6z M360.6,300.5v0.1V300.5
			L360.6,300.5L360.6,300.5z M360.8,298.2l-1.3,1.3l-3.2-3.3l3.3-3.3l1.6,1.6L360.8,298.2z M361.2,292.6l-0.7-0.7l0.8-0.8
			L361.2,292.6z M362.1,281.7l-0.2,3l-1.3-1.5L362.1,281.7L362.1,281.7z"/>
	</g>
	<path class="st7" d="M364.6,277.3h-36.1c-0.9,0-1.6-0.7-1.6-1.6v-0.9c0-0.9,0.7-1.6,1.6-1.6h36.1c0.9,0,1.6,0.7,1.6,1.6v0.9
		C366.2,276.6,365.5,277.3,364.6,277.3z"/>
	<path class="st7" d="M331.3,310.5h30.4c0.9,0,1.6,0.7,1.6,1.6v0.9c0,0.9-0.7,1.6-1.6,1.6h-30.4c-0.9,0-1.6-0.7-1.6-1.6v-0.9
		C329.7,311.2,330.4,310.5,331.3,310.5z"/>
</g>
<g id="freepik--Switches--inject-2">
	<path class="st13" d="M28.8,6.2c-2.5,0-4.6,2-4.6,4.6v154c0,2.5,2,4.6,4.6,4.6c0,0,0,0,0,0h269.1c2.5,0,4.6-2,4.6-4.6v-154
		c0-2.5-2-4.6-4.5-4.6c0,0,0,0,0,0H28.8z"/>
	<path class="st7" d="M33.8,1.2c-2.5,0-4.6,2-4.6,4.6v154c0,2.5,2,4.6,4.6,4.6c0,0,0,0,0,0h269.1c2.5,0,4.6-2,4.6-4.6V5.8
		c0-2.5-2-4.6-4.5-4.6c0,0,0,0,0,0H33.8z"/>
	<path class="st14" d="M33.8,1.2c-2.5,0-4.6,2-4.6,4.6v154c0,2.5,2,4.6,4.6,4.6c0,0,0,0,0,0h269.1c2.5,0,4.6-2,4.6-4.6V5.8
		c0-2.5-2-4.6-4.5-4.6c0,0,0,0,0,0H33.8z"/>
	<polygon class="st7" points="281.1,28.6 279.1,24.4 244.5,24.4 244.5,141.1 279.1,141.1 281.1,137 	"/>
	<polygon class="st15" points="250.3,28.6 244.5,24.4 244.5,141.1 250.3,137 	"/>
	<polygon class="st8" points="244.5,24.4 250.3,28.6 281.1,28.6 279.1,24.4 	"/>
	<polygon class="st16" points="250.3,137 281.1,137 279.1,141.1 244.5,141.1 	"/>
	<g class="st17">
		<path class="st12" d="M265.7,45.8c-3.3,0-6-2.7-6-6s2.7-6,6-6s6,2.7,6,6S269,45.8,265.7,45.8z M265.7,35.8c-2.2,0-4,1.8-4,4
			s1.8,4,4,4s4-1.8,4-4C269.6,37.6,267.9,35.9,265.7,35.8L265.7,35.8z"/>
		<path class="st12" d="M265.7,131.7c-0.6,0-1-0.4-1-1v-10c0-0.6,0.4-1,1-1s1,0.4,1,1v10C266.7,131.3,266.2,131.7,265.7,131.7z"/>
	</g>
	<rect x="253.3" y="51.6" class="st18" width="24.8" height="62.4"/>
	<path class="st7" d="M298.1,71l-2.2-18.5h-20l-22.6,0.1v60.7h20c1.2-9.9,1.8-19.8,1.7-29.8l0,0l23.1-6.1l0.7-0.2L298.1,71z"/>
	<path class="st19" d="M298.1,71l-2.2-18.5h-20l-22.6,0.1v60.7h20c1.2-9.9,1.8-19.8,1.7-29.8l0,0l23.1-6.1l0.7-0.2L298.1,71z"/>
	<polygon class="st8" points="275.9,52.4 295.9,52.4 298.8,77.1 278.8,77.1 	"/>
	<polygon class="st16" points="254.9,83.4 275,83.4 298.8,77.1 278.8,77.1 	"/>
	<path class="st15" d="M278.8,77.1l-0.7,0.2l-23.1,6.1l0,0c0.1,9.9-0.5,19.9-1.7,29.8V52.5c0.3,1.9,0.5,4.1,0.7,6.4l21.9-6.5
		l2.2,18.5L278.8,77.1z"/>
	<polygon class="st7" points="218.6,28.6 216.6,24.4 182,24.4 182,141.1 216.6,141.1 218.6,137 	"/>
	<polygon class="st15" points="187.8,28.6 182,24.4 182,141.1 187.8,137 	"/>
	<polygon class="st8" points="182,24.4 187.8,28.6 218.6,28.6 216.6,24.4 	"/>
	<polygon class="st16" points="187.8,137 218.6,137 216.6,141.1 182,141.1 	"/>
	<g class="st17">
		<path class="st12" d="M203.2,45.8c-3.3,0-6-2.7-6-6s2.7-6,6-6c3.3,0,6,2.7,6,6S206.5,45.8,203.2,45.8z M203.2,35.8
			c-2.2,0-4,1.8-4,4s1.8,4,4,4s4-1.8,4-4C207.2,37.6,205.4,35.9,203.2,35.8L203.2,35.8z"/>
		<path class="st12" d="M203.2,131.7c-0.6,0-1-0.4-1-1v-10c0-0.6,0.4-1,1-1s1,0.4,1,1v10C204.2,131.3,203.7,131.7,203.2,131.7z"/>
	</g>
	<rect x="190.8" y="51.6" class="st18" width="24.8" height="62.4"/>
	<path class="st7" d="M235.6,71l-2.2-18.5h-20l-22.6,0.1v60.7h20c1.2-9.9,1.8-19.8,1.7-29.8l0,0l23.1-6.1l0.7-0.2L235.6,71z"/>
	<path class="st19" d="M235.6,71l-2.2-18.5h-20l-22.6,0.1v60.7h20c1.2-9.9,1.8-19.8,1.7-29.8l0,0l23.1-6.1l0.7-0.2L235.6,71z"/>
	<polygon class="st8" points="213.4,52.4 233.4,52.4 236.3,77.1 216.3,77.1 	"/>
	<polygon class="st16" points="192.5,83.4 212.5,83.4 236.3,77.1 216.3,77.1 	"/>
	<path class="st15" d="M216.3,77.1l-0.7,0.2l-23.1,6.1l0,0c0.1,10-0.5,19.9-1.7,29.8V52.5c0.3,1.9,0.5,4.1,0.7,6.4l21.9-6.5
		l2.2,18.5L216.3,77.1z"/>
	<polygon class="st7" points="156.1,28.6 154.1,24.4 119.5,24.4 119.5,141.1 154.1,141.1 156.1,137 	"/>
	<polygon class="st15" points="125.3,28.6 119.5,24.4 119.5,141.1 125.3,137 	"/>
	<polygon class="st8" points="119.5,24.4 125.3,28.6 156.1,28.6 154.1,24.4 	"/>
	<polygon class="st16" points="125.3,137 156.1,137 154.1,141.1 119.5,141.1 	"/>
	<g class="st17">
		<path class="st12" d="M140.7,45.8c-3.3,0-6-2.7-6-6s2.7-6,6-6s6,2.7,6,6S144,45.8,140.7,45.8z M140.7,35.8c-2.2,0-4,1.8-4,4
			s1.8,4,4,4s4-1.8,4-4C144.7,37.6,142.9,35.9,140.7,35.8L140.7,35.8z"/>
		<path class="st12" d="M140.7,131.7c-0.6,0-1-0.4-1-1v-10c0-0.6,0.4-1,1-1s1,0.4,1,1v10C141.7,131.3,141.3,131.7,140.7,131.7z"/>
	</g>
	<rect x="128.3" y="51.6" class="st18" width="24.8" height="62.4"/>
	<path class="st7" d="M173.1,94.6l-2.2,18.6h-20h-22.6V52.5h20c1.2,9.9,1.8,19.8,1.7,29.7l0,0l23.1,6.1l0.7,0.2L173.1,94.6z"/>
	<path class="st19" d="M173.1,94.6l-2.2,18.6h-20h-22.6V52.5h20c1.2,9.9,1.8,19.8,1.7,29.7l0,0l23.1,6.1l0.7,0.2L173.1,94.6z"/>
	<polygon class="st8" points="150.9,113.2 170.9,113.2 173.8,88.5 153.8,88.5 	"/>
	<polygon class="st19" points="130,82.2 150,82.2 173.8,88.5 153.8,88.5 	"/>
	<path class="st15" d="M153.8,88.5l-0.7-0.2L130,82.2l0,0c0.1-9.9-0.5-19.9-1.7-29.8v60.7c0.3-1.9,0.5-4.1,0.7-6.4l21.9,6.5
		l2.2-18.6L153.8,88.5z"/>
	<polygon class="st7" points="93.6,28.6 91.6,24.4 57.1,24.4 57.1,141.1 91.6,141.1 93.6,137 	"/>
	<polygon class="st15" points="62.8,28.6 57.1,24.4 57.1,141.1 62.8,137 	"/>
	<polygon class="st8" points="57.1,24.4 62.8,28.6 93.6,28.6 91.6,24.4 	"/>
	<polygon class="st16" points="62.8,137 93.6,137 91.6,141.1 57.1,141.1 	"/>
	<g class="st17">
		<path class="st12" d="M78.2,45.8c-3.3,0-6-2.7-6-6s2.7-6,6-6s6,2.7,6,6S81.5,45.8,78.2,45.8z M78.2,35.8c-2.2,0-4,1.8-4,4
			s1.8,4,4,4s4-1.8,4-4C82.2,37.6,80.4,35.9,78.2,35.8L78.2,35.8z"/>
		<path class="st12" d="M78.2,131.7c-0.6,0-1-0.4-1-1v-10c0-0.6,0.4-1,1-1c0.6,0,1,0.4,1,1v10C79.2,131.3,78.8,131.7,78.2,131.7z"/>
	</g>
	<rect x="65.8" y="51.6" class="st18" width="24.8" height="62.4"/>
	<path class="st7" d="M110.6,94.6l-2.2,18.6h-20H65.8V52.5h20c1.2,9.9,1.8,19.8,1.7,29.7l0,0l23.1,6.1l0.7,0.2L110.6,94.6z"/>
	<path class="st19" d="M110.6,94.6l-2.2,18.6h-20H65.8V52.5h20c1.2,9.9,1.8,19.8,1.7,29.7l0,0l23.1,6.1l0.7,0.2L110.6,94.6z"/>
	<polygon class="st8" points="88.4,113.2 108.4,113.2 111.3,88.5 91.3,88.5 	"/>
	<polygon class="st19" points="67.5,82.2 87.5,82.2 111.3,88.5 91.3,88.5 	"/>
	<path class="st15" d="M91.3,88.5l-0.7-0.2l-23.1-6.1l0,0c0.1-9.9-0.5-19.9-1.7-29.8v60.7c0.3-1.9,0.5-4.1,0.7-6.4l21.9,6.5
		l2.2-18.6L91.3,88.5z"/>
</g>
<g id="freepik--Character--inject-2">
	<g id="freepik--group--inject-2">
		<path class="st20" d="M312.9,86.2c0,0,10.5,19.7,11.2,24.4s-10.4,34.1-10.4,34.1s2,7.9-0.5,9.1c-2.5,1.3-6.9,3.8-7.4,1.5
			s0.3-9.7,0.3-9.7l1.9-1.5c0,0,7.4-30.9,7.5-32s-11.4-19.7-11.4-19.7L312.9,86.2z"/>
		<path class="st18" d="M324.8,111.7c-0.1,3.6-7.4,27.1-7.4,27.1l-8.5-1c0,0,4.4-23.2,4.4-25.5c-0.2-1.2-0.7-2.3-1.3-3.3
			c-1.3-2.4-3.2-5.5-5.1-8.4c-2.8-4.3-5.5-8.1-5.5-8.1l7-5.7c0,0,0.5-1.6,1.3-3.3c0.9-2,2.1-4,3.2-3.7
			C316.8,81.2,324.9,108.1,324.8,111.7z"/>
		<polygon class="st7" points="309,134.1 319.7,135.9 317.4,138.7 308.9,137.7 		"/>
		<polygon class="st21" points="309,134.1 319.7,135.9 317.4,138.7 308.9,137.7 		"/>
		<path class="st15" d="M312,108.9c-1.3-2.4-3.2-5.5-5.1-8.4c-2.8-4.3-5.5-8.1-5.5-8.1l7-5.7c0,0,0.5-1.6,1.3-3.3
			C311.6,87.1,317,98.6,312,108.9z"/>
		<path class="st20" d="M283.8,64.8c0.1,0.3,0.2,0.7,0.3,1c0.9,2.5,2.7,4.5,5,5.7c2.5,1.3,5.4,1.4,8,0.4c1.1-0.5,2.1-1.2,3-2.1
			c3.7-3.7,3.6-8,4-15.3c0.4-5.5-3.8-10.3-9.3-10.6c-1.5-0.1-3,0.1-4.4,0.7C283.1,47.4,282.1,58.2,283.8,64.8z"/>
		<path class="st15" d="M287.7,70.6c0.4,0.3,0.9,0.6,1.3,0.8c2.5,1.3,5.4,1.4,8,0.4c-0.3-0.9-0.8-1.7-1.3-2.5
			C292.9,69,290.1,69.5,287.7,70.6z"/>
		<path class="st20" d="M302.3,80.1c-3.6,3.3-12.3,2-12.3,2s-5.5-1.5-4.3-3.2c3.2-0.5,4.8-2,5.4-4c0.4-1.2,0.5-2.4,0.3-3.7
			c-0.1-0.7-0.1-1.3-0.3-2l10.8-8C300.5,66.5,298.8,76.2,302.3,80.1z"/>
		<path class="st18" d="M292.3,41.4c0,0-1.9-1.2-5.2,1.9c-2.8,2.6,0,4.7-1.6,8s0.6,6.6,0.6,6.6s1.6,3.4,4.4,3.2c0,0,2.3,2.7,1.9,5.6
			c-0.4,2.8,3.7,5.1,9.2,5s3.3-3.5,3.3-3.5c1.6-1.9,2.9-4,3.8-6.2c1.1-2.7,1.7-5.7,1.6-8.7c0.1-3.1-1-6.1-3.2-8.4
			C303.4,40.8,294.6,38.7,292.3,41.4z"/>
		<path class="st20" d="M291.8,59.6c-0.3,1.4-1.2,2.6-2.4,3.2c-1.5,0.6-2.5-1.5-2.2-3.6c0.2-1.9,1.2-4.7,2.8-4.3
			S292.3,57.7,291.8,59.6z"/>
		<path class="st7" d="M303.1,79.4l-1.6-4.1c0,0-10.8-2.1-14.5,3.3S303.1,79.4,303.1,79.4z"/>
		<path class="st21" d="M303.1,79.4l-1.6-4.1c0,0-10.8-2.1-14.5,3.3S303.1,79.4,303.1,79.4z"/>
		<polygon class="st20" points="274.3,307.7 266.8,308.5 266.4,304.1 265.4,292.1 272.9,291.3 274.1,304.5 		"/>
		<polygon class="st20" points="312.1,306.7 304.8,306.7 304.7,305 304.7,304.8 304.4,294.2 304.3,294 304.2,289.9 311.5,289.9 		
			"/>
		<polygon class="st15" points="272.9,291.3 274.1,304.5 266.4,304.1 265.4,292.1 		"/>
		<polygon class="st15" points="312.1,305.8 312.1,305.8 304.7,304.8 304.7,304.8 304.3,294.6 304.4,294.6 311.7,295.1 312.1,305.4 
					"/>
		<path class="st18" d="M303.8,306.3h8.9c0.3,0,0.6,0.2,0.6,0.5l1.5,6.5c0.1,0.6-0.3,1.2-0.8,1.3h-0.2c-2.9,0-5-0.2-8.6-0.2
			c-2.2,0-9,0.2-12,0.2s-3.5-3-2.2-3.3c5.7-1.2,9.9-2.9,11.7-4.6C302.9,306.4,303.3,306.3,303.8,306.3z"/>
		<path class="st18" d="M266,306h8.9c0.3,0,0.6,0.2,0.6,0.5l1.5,6.5c0.1,0.6-0.3,1.2-0.8,1.3c0,0,0,0,0,0c-0.1,0-0.2,0-0.2,0
			c-2.9,0-5-0.2-8.6-0.2c-2.2,0-9,0.2-12,0.2s-3.5-3-2.2-3.3c5.7-1.2,9.9-2.9,11.7-4.6C265.1,306.2,265.5,306,266,306z"/>
		<path class="st7" d="M264.7,303h10.8c0,0-0.9-92.7,10.8-124c0.8,10.3,1.8,21.1,2.7,30c0.6,5.5,1.1,10.3,1.7,13.9
			c3.4,23.3,11.9,81,11.9,81h10.6c0,0-1.3-55.2-2.5-78.2c-1.4-24.9-2-79.6-2-84.3h-39C265.9,161.1,256.4,239.5,264.7,303z"/>
		<path class="st15" d="M286.2,179c0.8,10.3,1.8,21.1,2.7,30c1.3-12.9,3-22.1,3-22.1s1.5-1.3,5.7-7.9s0-19.1,0-19.1
			C297.6,171.4,286.2,179,286.2,179z"/>
		<polygon class="st7" points="263.5,299.9 264,303 276.7,303 276.7,300.2 		"/>
		<polygon class="st7" points="301.2,301.1 302.4,303.9 313.1,303.9 313.8,301.1 		"/>
		<path class="st18" d="M309.5,144c0,0-1.5-16.9,0.7-42.7c0.6-6.6,1.4-13.8,2.6-21.5c0,0-21.2-4.7-36,0c0,0-0.6,3.1-1.4,8.5
			c-0.5,3.2-1.1,7.2-1.7,11.8l0,0c0,0.2,0,0.4-0.1,0.5c-1.5,11.2-4.3,27.6-4.5,42.7L309.5,144z"/>
		<path class="st15" d="M273.6,100.7c3-2.7,4.6-12.8,4.7-13.2l-3,0.9c-0.5,3.2-1.1,7.2-1.7,11.8l0,0
			C273.7,100.3,273.6,100.5,273.6,100.7z"/>
		<path class="st20" d="M274.8,90.4c0,0-16.1,0.1-21.3-1.5s-15.7-25.7-15.7-25.7l-7.8-3.8c0,0,1.8-6,4.1-6.2s7.2,5.8,7.7,7.1
			s14,18.8,14.7,19.7s20.1,0.1,20.1,0.1L274.8,90.4z"/>
		<path class="st18" d="M279.5,79.1c-5.2,1-20.9,0.8-22.4,0.3S246,64.8,246,64.8l-6,6.6c0,0,8.9,17.6,11.3,19s23.3,3.2,23.3,3.2
			C280.4,87.6,279.5,79.1,279.5,79.1z"/>
		<polygon class="st21" points="263.5,299.9 264,303 276.7,303 276.7,300.2 		"/>
		<polygon class="st21" points="301.2,301.1 302.4,303.9 313.1,303.9 313.8,301.1 		"/>
		<polygon class="st7" points="241.8,74.9 247.7,67.3 246,64.8 240,71.4 		"/>
		<polygon class="st21" points="241.8,74.9 247.7,67.3 246,64.8 240,71.4 		"/>
	</g>
</g>
</svg>
